<svg xmlns="http://www.w3.org/2000/svg" viewBox="0 0 512 512">
  <defs>
    <linearGradient id="grad1" x1="0%" y1="0%" x2="100%" y2="100%">
      <stop offset="0%" style="stop-color:#ff6b35;stop-opacity:1" />
      <stop offset="100%" style="stop-color:#f7931e;stop-opacity:1" />
    </linearGradient>
  </defs>
  <rect width="512" height="512" fill="url(#grad1)" rx="85"/>
  <g transform="translate(256, 256)">
    <!-- Card shape -->
    <rect x="-130" y="-190" width="260" height="380" fill="white" rx="20" opacity="0.95"/>
    <rect x="-120" y="-180" width="240" height="360" fill="#1a1a2e" rx="15"/>

    <!-- Straw Hat symbol -->
    <ellipse cx="0" cy="-60" rx="95" ry="40" fill="#ffd700"/>
    <rect x="-95" y="-70" width="190" height="25" fill="#ffd700"/>
    <rect x="-85" y="-45" width="170" height="8" fill="#c41e3a"/>

    <!-- Card lines -->
    <rect x="-95" y="50" width="190" height="12" fill="#f7931e" rx="6"/>
    <rect x="-95" y="80" width="140" height="8" fill="#666" rx="4"/>
    <rect x="-95" y="100" width="160" height="8" fill="#666" rx="4"/>
    <rect x="-95" y="120" width="120" height="8" fill="#666" rx="4"/>

    <!-- Sparkles -->
    <circle cx="-150" cy="-150" r="8" fill="white" opacity="0.8"/>
    <circle cx="155" cy="-130" r="6" fill="white" opacity="0.8"/>
    <circle cx="-160" cy="140" r="7" fill="white" opacity="0.8"/>
    <circle cx="160" cy="150" r="6" fill="white" opacity="0.8"/>
    <circle cx="-145" cy="0" r="5" fill="white" opacity="0.6"/>
    <circle cx="148" cy="10" r="5" fill="white" opacity="0.6"/>
  </g>
</svg>
