<svg xmlns="http://www.w3.org/2000/svg" version="1.1" viewBox="0 0 3480 3480"><path d="M0 0h3480v3480H0V0Z" fill="#EBC87C"/><path d="M0 0h3480v800l-50-50c-92.8-34.3-201.7 11.8-286.9 48.1a1817.9 1817.9 0 01-180 65.6c-81.3 26.3-150 68.5-222 113.3a4672.4 4672.4 0 01-80.8 48.6c-50 29.6-99.2 60-147.8 91.9-83 52.8-152.5 90.7-252.5 82.5l-10-20-23-12.5c-33.3-21.6-48-44.7-69.5-78.1-150.5-226.1-356.2-339.2-616.9-392.5-82.4-15.4-164.8-7.9-246.2 8.7l-26 5.3C1077.8 752.5 895 850 750 980l-10 20h-20l-7.7 17.3c-13.6 25.1-29.7 43.8-48.6 65.2C508 1274.5 482 1510.5 500 1750c9 56.4 28.2 107.5 50 160l13.5 35.5a1190.6 1190.6 0 00 106.7 203.9A266 266 0 01 710 2250c14.8 10 14.8 10 30 20-11.8 85.3-86.2 136.4-148 190a642.2 642.2 0 00-57.6 60.6A677 677 0 01 420 2630h-20l-7.5 17.5A221.5 221.5 0 01 340 2710h-20l-8.1 18.1A160.3 160.3 0 01 270 2780h-20l-8.2 24.4-12 25.6-30 10-4 16.4c-9 35.3-31 61.8-51.6 91.1C91.3 3024.5 49.8 3105.5 10 3190H0V0Z" fill="#F3F3F3"/><path d="M3470 840h10v2640H0v-210l20 20c48-4.4 94.6-24.3 140-40v-20l31.5-2.6c116.6-11.2 194.4-43.5 291-110a1847 1847 0 01 113.8-65l21.7-11.7A597.6 597.6 0 01 750 2990a323.5 323.5 0 00 120-80c29-21.5 59.5-40.7 90-60l33.6-21.4c69.8-43.7 140-80.9 216-112.7 46.6-20 91.3-41.9 136-65 64.6-33.6 130.8-60 198.8-85.9 99.8-37.9 192.8-83 285.6-135.6l52.5-29.4 20.1-11.3a485.2 485.2 0 01 67.4-29.4v-20l18.4-8.5a963.4 963.4 0 00 161.3-98C2170 2220 2170 2220 2190 2220l10-30h30v-20c15-15.2 15-15.2 35.6-32.5l22.2-19 41-34c36.1-30 66.4-61.5 96.4-97.7A477.7 477.7 0 01 2500 1920h20l10-30c18.2-15.4 18.2-15.4 41.3-31.9a454.5 454.5 0 00 82.5-76.9c35.3-42.5 76.3-75.4 119.7-109.4 27.4-21.7 27.4-21.7 53-48.9 23.5-23 23.5-23 53.5-33l20-50c21-25 21-25 45-48.5l24-24C2990 1450 2990 1450 3010 1450l7.3-17.5c15.1-26.8 32.5-42 55.8-61.9C3243.3 1225.3 3363.8 1061 3460 860l10-20Z" fill="#F0F0F0"/><path d="m1583.1 696.9 25 5.4C1745.8 733.8 1895.6 790.7 2000 890v20l17.4 7.3c80 45 133.6 140.6 183.1 215.8 18.4 28.7 18.4 28.7 49.5 46.9h-30l7.5 16.9c2.5 23.1 2.5 23.1-16.3 49.4L2190 1270l-10 20h-20v30h-20l-7.9 17.5a316.5 316.5 0 01-46.5 63.1c-9 10-9 10-18 20.4L2050 1440l-16 17.5C2020 1470 2020 1470 2000 1470l-10 30h-20v20c-15 15.2-15 15.2-35.6 32.5l-22 18.6L1890 1590l-20.2 18-18.5 16.4-16.8 15C1820 1650 1820 1650 1800 1650l-10 30c-44.6 40-44.6 40-70 40v20c-26.5 14.6-39 20-70 20v20a454 454 0 01-130 70v20l-17.6 9.5a1071 1071 0 00-101.8 61.1c-35.2 22.3-70.8 36-109.9 50.1-22.4 7.4-22.4 7.4-30.7 29.3-22.1 10.7-22.1 10.7-49.4 21.3l-27.1 10.7c-23.5 8-23.5 8-43.5 8v20l-57.5 25-32.3 14C1020 2130 1020 2130 980 2130v20a631.7 631.7 0 01-180 40c-40-67.5-40-67.5-40-90h-20l-10 20c-20-30-20-30-23.1-60.6-10.2-58.2-34.6-117.1-76.9-159.4a899 899 0 01-10-60h-30v-30l-20-10c-34-67.2-44.3-133.5-47.8-208-2.1-31-7-59.7-13.4-90.1-25.2-133.7 38.6-261 110-371.2C682 1039.5 682 1039.5 720 1000h20l7.4-17.7C820.6 852.5 1053.5 763.1 1190 720c133-35.9 257.5-53.3 393.1-23.1Z" fill="#EBC87B"/><path d="M3455 756.9c19.2 29.6 23 47.7 25 83.1a474 474 0 01-34.4 81.9l-11 22.7c-48 95.9-112.7 176.4-184.6 255.4l-25.9 29.4-27.2 30.6-25.5 28.8C3150 1310 3150 1310 3130 1310l-7.3 17.5c-15.1 26.8-32.5 42-55.8 61.9a1546 1546 0 00-191.9 199.2c-48.7 60.3-109.8 104.4-171 151.4a403.7 403.7 0 00-57.1 58.8 496 496 0 01-100.9 89c-17.5 11.5-17.5 11.5-26 32.2-23.2 4-46.6 7.4-70 10v20c-16.4 13.3-16.4 13.3-38.1 28.1-34 24.4-50.8 45.7-71.9 81.9a215.8 215.8 0 01-68 23c-31 10-52.5 28-78.2 47.6C2142 2170 2142 2170 2120 2170v-20c17.2-13 17.2-13 40.6-27.5 64.1-40.8 64.1-40.8 119.4-92.5v-30l40-10-1-18c-1.8-49.4-2.8-83 31-122 23-19 46.3-37 70.4-54.5 20.7-14 20.7-14 29.6-35.5-40.7 22.5-73.3 49.2-107.5 80.6l-29.2 26.6c-23.5 20.6-23.5 20.6-33.3 42.8-19.8 7.3-39.8 14-60 20l10-30-40-10c-19.5 54.8-19.5 54.8-10 110h20l10-30 60-10c-10 20-10 20-27.5 28-30.2 16-49.6 38-73.1 62.6-46 48.3-46 48.3-79.4 59.4-30 0-30 0-50-10l110-90-60 20v20l-60 20a334.1 334.1 0 01 90-100l10-20-50 40-20-10 20-40-16.8 13.1-22 16.9-21.7 16.9C2000 2000 2000 2000 1980 2000v20l-60 20v-20c43.8-30 43.8-30 70-30v-30h-20v20c-53 40-53 40-90 40 14-33.2 28.7-49 58.1-69.4A681 681 0 00 2030 1870l38.8-32.5c37.3-32.2 66.6-67.7 95.8-107.3A437.7 437.7 0 01 2210 1680a541.7 541.7 0 00 109.4-157.5c10.6-22.5 10.6-22.5 28.1-50 16-29 21.8-49.3 22.5-82.5-17.9-30.6-17.9-30.6-40-60-12.5-33.8-12.5-33.8-20-60h-20v-60l-20-10 19.5-2c126-17 225-89.9 328.8-158.1a1657 1657 0 01 146-86c26.1-13.7 26.1-13.7 51.7-30.6 79.7-50.8 162-77.8 251.8-106.2 58.1-18.6 114-41.4 170-65.5 68.3-24.6 154-37.4 217.2 5.3Z" fill="#EBC87D"/><path d="M2220 1180c40 0 40 0 57.5 11.3 17.6 26.4 14.6 47.7 12.5 78.7h20a20091.6 20091.6 0 01 45.9 83c25.9 49.5 25.9 49.5 19.6 76l-8 20.4-7.7 20.2c-9.8 20.4-9.8 20.4-24.4 39.9a363 363 0 00-39.1 70A300.5 300.5 0 01 2220 1680l-20 30h-20l-8 17.6c-36.1 67.6-100.8 127.4-162 172.4h-20l-10 30c-19.3 17.2-19.3 17.2-43.1 35l-23.7 17.8L1890 2000l-21.7 17.2C1850 2030 1850 2030 1830 2030l-10 30c-19 10-38 19.7-57.3 28.8-37.5 18.5-71.7 41.9-106.5 65a3576.9 3576.9 0 01-166.4 104c-20 11.8-20 11.8-38 27.2-29.2 20.1-59.4 29.4-93 40.6-49 14.8-49 14.8-88.8 44.4-311.4 114.8-311.4 114.8-450 60l-10-50h-20l-12-23.4-16.1-30.3-15.8-30.3c-15-28.3-15-28.3-46-46a5596 5596 0 01-20.1-70c-13.2-23-26.7-44.8-41.3-66.9-37.8-60-67-121.5-93-187.5l-10-25c-37-95.5-48.7-175.3-47.6-277.5v-33.7c.3-48 1.2-92.5 11.9-139.4h10c12.2 59 21 116.7 24.4 176.9 3.4 53.7 14.6 93.8 35.6 143.1v30l30 10-10 30h30l12.5 30.6A973.6 973.6 0 00 690 1980a294.2 294.2 0 01 31.3 87.5l5 24.2L730 2110l30-10c40 56.3 40 56.3 40 90l31.8-8.8L873 2170l21-5.8c29.5-8 55.2-14.2 86-14.2v-20a1128 1128 0 01 160-50v-20c12.4-6.8 25-13.4 37.5-20 7-3.7 14-7.4 21-11.3C1220 2020 1220 2020 1260 2020l10-30c28.8-14 28.8-14 65.6-28.1 52.3-20.8 96.2-44 138.9-80.9C1490 1870 1490 1870 1520 1870v-20c19.5-14 39.6-27.3 60-40l27.5-17.5C1630 1780 1630 1780 1650 1780v-20c26.5-14.6 39-20 70-20v-20c17-12.3 34-24.6 51.3-36.4 25.7-18.7 46.6-41 68.7-63.6 55-50 55-50 80-50l8.1-19.4C1940 1530 1940 1530 1970 1520v-20c13.8-16.3 13.8-16.3 30-30h20l10-30c43.2-47.7 43.2-47.7 80-60 11.7-19.2 11.7-19.2 20-40l10-20h20v-30h20l8.8-22.5c11.2-27.5 11.2-27.5 22.5-49.4 10.1-17.7 10.1-17.7 8.7-38.1Z" fill="#AC4140"/><path d="M2100 2290v110h150v150h150v150h150v150h150v150h150v150h150v150h-150v150h-150v-150h-150v-150h-150v-150h-150v-150h-150v-150h-150v-150h-150c-3.7-73.7-3.7-73.7 12.4-101a207.7 207.7 0 01 61.3-45.3l24-12.6A656.7 656.7 0 01 1970 2360v-20a6685.4 6685.4 0 01 75.2-39C2070 2290 2070 2290 2100 2290Z" fill="#FDFDFC"/><path d="m3370 1030 10 20h70v150h-150v150h-150v150h-150v150h-150v150h150v150h150v150h150v150h150v150h-150v150h-150v-150h-150v-150h-150v-150h-150v-150h-150l-10-40-20-10 19.4-14.7c41.9-32.4 81.2-63.7 115-104.7 35-42.3 76-75 119.1-108.8 27.4-21.7 27.4-21.7 53-48.9 23.5-23 23.5-23 53.5-33l20-50c21-25 21-25 45-48.5l24-24C2990 1450 2990 1450 3010 1450l7.3-17.5c15.1-26.8 32.5-42 55.8-61.9 114.2-97.5 223-209 296.9-340.6Z" fill="#EEE"/><path d="M3455 756.9c19.2 29.6 23 47.7 25 83.1a474 474 0 01-34.4 81.9l-11 22.7c-48 95.9-112.7 176.4-184.6 255.4l-25.9 29.4-27.2 30.6-25.5 28.8C3150 1310 3150 1310 3130 1310l-7.3 17.5c-15.1 26.8-32.5 42-55.8 61.9a1546 1546 0 00-191.9 199.2c-48.7 60.3-109.8 104.4-171 151.4a394.7 394.7 0 00-56.5 58.1c-37.5 44.2-80.7 78-127.5 111.9 0-30 0-30 19-52.6l24.7-24.3 24.7-24.5C2610 1790 2610 1790 2630 1790l10-30c17.1-15.9 35-31 53.1-45.6l29.3-23.8A412 412 0 01 2790 1650c11.5-19.7 11.5-19.7 20-40l20-20v-30c-38.5 5.4-53.2 21.2-77.5 50.6l-18.6 22.3L2720 1650l-10-20 10-20h-20l-10 30-10-30 23.4-24.8c10-11 20.2-21.8 30.4-32.7l15.3-16.3c25.7-27.1 47.6-51.7 61-86.2l-16 15-21.6 19.4-21.5 19.3c-21 16.3-21 16.3-51 26.3v30a407.2 407.2 0 01-80 70c4.6-50.3 47.5-80.6 82.3-113.1 17.5-17 17.5-17 37.7-46.9-2.4-36.6-2.4-36.6-10-70 24.4-27.5 24.4-27.5 50-50v-50l-50 20 20-28.1c24.6-42.2 23-79.5 20.4-127.4C2770 1140 2770 1140 2780 1110l30-20-110-10v-20c57.8-2 104.6 2.8 160 20 20 20 20 20 20 40h20v-50h20l-10-30 10-10c-12.9-5.3-25.8-10.5-38.8-15.6-7.1-3-14.3-5.8-21.7-8.8-20-8.1-20-8.1-39.5 4.4l-20-10c18.8-38.8 18.8-38.8 30-50l-18.1 13.8c-24.3 18-46.6 34.1-75 45.2-42.7 17.5-81 42.5-120.5 66.4C2590 1090 2590 1090 2570 1090v-20c59.6-44.7 126.5-80 192.2-114.7a913.6 913.6 0 00 54-32.1c79.7-50.8 162-77.8 251.6-106 58.1-18.7 114-41.5 170-65.6 68.3-24.6 154-37.4 217.2 5.3ZM2740 1010c22.5 2.7 22.5 2.7 50 8.1l27.5 5.2 22.5 6.7 10 20a2070 2070 0 01-43.1 1.9l-24.3 1c-27.4-3.5-35.5-11.8-52.6-33l10-10.5Zm-30 430h20c0 30 0 30-15.7 46.5l-21.2 17.2c-39 32.8-75.2 67.1-110 104.4C2570 1620 2570 1620 2550 1620l20-40h20l7.1-17.4c15.7-27.5 34.4-43.5 58.5-63.8 31.9-25.7 31.9-25.7 54.4-58.8Z" fill="#E1C07A"/><path d="M740 2280c26.4 31.3 38.4 60.9 50 100h20l20 50c52 9.6 97.5 9 150 1.3l20.4-2.8a7897.2 7897.2 0 00 99.6-14.2l30-4.3c-30.4 20.3-57.2 30-91.6 41.2-22 8.6-22 8.6-38.4 38.8a962.9 962.9 0 01-75 30l-22 8a1327.1 1327.1 0 01-113 35.7c-74.1 20.8-142 60.8-210 96.3-2.2 29.3-2.2 29.3 10 50l-80-10 4.4 17.5L530 2780h-20l-20-50c-19.8 2.7-19.8 2.7-40 10l-10 30h20l-10 30-20-40h-30l20 90-30-10-10-60-20 10c-4.7 21.3-4.7 21.3-6.3 45.6l-2.2 25L350 2880l-30-10v-60h-20v70h-20l-10-50c-21.2 35.3-25.3 69.4-30 110h-20l-20 70c-48.8-8.8-48.8-8.8-60-20v50c44.5-10 44.5-10 90-20v-30h70c12.5 25 7.8 34.1 0 60l36.9-10c31.8-8 60-12 93.1-10v-20l80-30-170 40v-20a2926 2926 0 01 230-60v50a1011.8 1011.8 0 01-220 80l-33.1 8.1c-27 1.9-27 1.9-55-8.1-38-11.9-63-7.5-101.4 0-20.5 0-20.5 0-38.2-14.7L110 3040c-57.7 74.8-85.1 134.7-80 230l20 10v-50l20 10v20l28.8-15C130 3230 130 3230 150 3230v-20c83-32.3 83-32.3 130-29.4 67.3 3 124.3-36.9 180-70.6h20v-20l-28.6 6.6c-81.9 17.7-157.1 27.6-241.4 23.4v-20l22.1-.8c123.3-6.7 248.8-28.3 362.2-78.5 46-19.2 94-33.2 141.5-48.2A439.3 439.3 0 00 820 2930h20c-11.9 35.6-18.8 38.2-50.6 55.6l-22.3 12.6c-28.3 12.3-56.4 18.8-86.4 25.9-34.2 10-64.1 26.8-95 44a1440.8 1440.8 0 00-144.4 88.7c-74.3 48.4-140.4 75.5-229.4 74.4l-29.6-.2-22.3-1v20c-94.1 44-94.1 44-140 50-25-37.4-25.6-66.7-20-110a429.5 429.5 0 01 33.8-75.6l10.6-20.6c33.8-63.8 73.4-123.5 114.6-182.7A556 556 0 00 200 2840a902.2 902.2 0 01 40-40l24.4-24.4a5840 5840 0 01 50-49.4 960.9 960.9 0 00 55.6-62.5c24.1-28.6 47.2-45.2 80-63.7 31.3-30 60.6-61.3 89.5-93.5 42.3-47.2 85.3-91 134-132 31.8-28 53-54.3 66.5-94.5Z" fill="#B79759"/><path d="M1970 2340v20c-72.4 54.6-160.8 91.3-242 131-22 11-43.8 22.5-65.5 34-57.7 29-118.3 51.7-178.6 74.7a1040.6 1040.6 0 00-143.6 69.2 499 499 0 01-80.3 33c-123.6 46.2-236.5 111-342.7 189A316.6 316.6 0 01 840 2930v-20c16.8-12.9 16.8-12.9 38.8-26.3l21.7-13.5C920 2860 920 2860 940 2860l10-30h30l-10-40c-33.7 5.5-50.8 10.5-80 30v30l-16.9-1.8c-57.2-3.3-86.8 6.4-133.1 39.3-31.7 19.8-63.6 25.3-100 32.5v-20l18-7.7c63.3-26.9 63.3-26.9 122-62.3l10-30c20.6-11.9 20.6-11.9 40-20l-10-20 50 10v20l90-40-30-10v-20l29.4-12.5A9224 9224 0 00 1090 2650c-31.2 4.6-53 11.5-81.3 26.3C980 2690 980 2690 950 2680c56.3-38.8 56.3-38.8 90-50l10-20c25.6-6.3 25.6-6.3 50-10v-20l-70 20c10-30 10-30 32.9-41.7l27.7-10.2 27.9-10.4L1140 2530l-30-20c7.6-4.5 15.3-9 23.1-13.8A1402 1402 0 00 1190 2460h30v20c49.8 2.9 71.6 1 110-30 32.5-6.9 32.5-6.9 60-10v-20c29-12.6 48-20 80-20v20a2709407457.7 2709407457.7 0 00-94.4 44.4l-27.2 12.7-25.9 12.2-24 11.3c-18.1 8-18.1 8-28.5 19.4l-34.4 4.4c-36 2-36 2-55.6 25.6l20 10-10 80h20l10-40h20v-20h-30c10-30 10-30 43.9-49.4 14.3-7 28.6-13.8 43-20.6l21.4-10.4 42-20.1c17.9-8.6 35.5-17.8 53-27C1440 2440 1440 2440 1470 2440c-10 30-10 30-42.7 48.2a2480 2480 0 01-41 18.7l-20.8 9.7c-30 13.7-52.1 23.4-85.5 23.4l10 20 17.5-10c22.5-10 22.5-10 62.5-10v-20l90-20v-20h50v-20l27.5-9.2c65.2-22.4 126.7-45.5 185.8-81.6C1740 2360 1740 2360 1760 2360v20l-30 20 10 30-55 27.5-33 16.6a4190 4190 0 01-57.4 28c-39 16.4-39 16.4-64.6 47.9h-40v20a975 975 0 00 84.4-45c39-22.8 80.2-39 122.2-55.2 70.8-27.9 132.6-62 196.3-103 26.3-16.3 45.8-26.8 77-26.8Z" fill="#EBC87C"/><path d="m3370 1030 10 20h70v150h-150v150h-150v150h-150v150h-150v150h-150v150h-150l-10-40-20-10 19.4-14.7c41.9-32.4 81.2-63.7 115-104.7 35-42.3 76-75 119.1-108.8 27.4-21.7 27.4-21.7 53-48.9 23.5-23 23.5-23 53.5-33l20-50c21-25 21-25 45-48.5l24-24C2990 1450 2990 1450 3010 1450l7.3-17.5c15.1-26.8 32.5-42 55.8-61.9 114.2-97.5 223-209 296.9-340.6Z" fill="#EDEDEC"/><path d="m1700 1420 34.4 34.5c10.8 10.7 21.7 21.4 32.7 32A751.5 751.5 0 01 1870 1610c-47.5 40-47.5 40-70 40l-10 30c-44.6 40-44.6 40-70 40v20c-26.5 14.6-39 20-70 20v20a454 454 0 01-130 70v20l-18 9.9c-41 22.7-82 45.5-122 70-19-23.8-30.2-40.6-40-70h20v20h20l-10-220 50 10-1.9-28.7 1.9-31.2c36.4-24.3 57.1-21.6 100-20-6.3-25.2-6.3-25.2-20-50-25.5-9-25.5-9-50-10l10 30-40-10v-30h30l-20-50h20l10-50c22.3-2.7 22.3-2.7 50 0 22 18.3 22 18.3 42.5 42.5l20.8 24A130.1 130.1 0 01 1600 1570c-29.6-28-54.4-51.8-70-90h-20l-10 60 27.5 1.9c40.4 10 50.4 23.7 72.5 58.1l10 30c25 12.2 25 12.2 50 20v-20h20l1.1-18.6 2-24.5 1.8-24.3c6-26.5 13.7-36.3 35-52.6h20a396.2 396.2 0 00-50-80l10-10Z" fill="#D1B577"/><path d="M3450 850c10 30 10 30-.8 58.6a1421.5 1421.5 0 01-234.2 335.2l-18.5 20c-33 34.6-33 34.6-46.5 46.2h-20l-7.3 17.5c-15.1 26.8-32.5 42-55.8 61.9a1546 1546 0 00-191.9 199.2c-48.7 60.3-109.8 104.4-171 151.4a394.7 394.7 0 00-56.5 58.1c-37.5 44.2-80.7 78-127.5 111.9 0-30 0-30 19-52.6l24.7-24.3 24.7-24.5C2610 1790 2610 1790 2630 1790l10-30c17.1-15.9 35-31 53.1-45.6l29.3-23.8A412 412 0 01 2790 1650c11.5-19.7 11.5-19.7 20-40l20-20v-30c-38.5 5.4-53.2 21.2-77.5 50.6l-18.6 22.3L2720 1650l-10-20 10-20h-20l-10 30-10-30 23.4-24.8c10-11 20.2-21.8 30.4-32.7l15.3-16.3c25.7-27.1 47.6-51.7 61-86.2l-16 15-21.6 19.4-21.5 19.3c-21 16.3-21 16.3-51 26.3v30a407.2 407.2 0 01-80 70c4.6-50.3 47.5-80.6 82.3-113.1 17.5-17 17.5-17 37.7-46.9-2.2-36.6-2.2-36.6-10-70 22.5-27.5 22.5-27.5 50-50l18.1-18.1L2810 1320l10 40 50-90h30l-10 23.8c-11.2 24.6-11.2 24.6-10 46.2l29.4-33.8 16.5-19c14.8-16.8 14.8-16.8 24.1-37.2h30a285.7 285.7 0 01-50 75.6 560.5 560.5 0 00-50 64.4h-30v30l40 10 6.6-31.3c12-42.2 36.9-68.6 68.4-98l15.1-15c37-35.7 37-35.7 60-35.7-17.2 40-40.7 58.5-74.5 84.4-18 18-21.7 30.7-25.6 55.6h-20v30c29.6-19.6 29.6-19.6 49-48.4 13-25.6 29.4-43.2 49.1-64a547.2 547.2 0 00 80.8-113.3L3110 1180h30a398.6 398.6 0 01-55.6 86.3c-24.6 30.3-24.6 30.3-44.4 63.7 48.8-4.2 68.5-23.6 100-60l20-30c27.4-41 52.5-74.2 100-90 6.9-13.2 13.5-26.6 20-40l34.4-40.4A1080.2 1080.2 0 00 3450 850Zm-740 590h20c0 30 0 30-15.7 46.5l-21.2 17.2c-39 32.8-75.2 67.1-110 104.4C2570 1620 2570 1620 2550 1620l20-40h20l7.1-17.4c15.7-27.5 34.4-43.5 58.5-63.8 31.9-25.7 31.9-25.7 54.4-58.8Z" fill="#E7C47A"/><path d="M450 1200h130c-4 10.8-8.2 21.5-12.4 32.6C491 1437.7 458.2 1671.2 540 1880c10 30 10 30 0 70h-90v-150H300v-150h150v-150H300v-150h150v-150Z" fill="#EDEDED"/><path d="M850 1590h20v20h20l20 40 10-40 60 10 10 50-40 10 60 30v70h-20l10 60h-20c4.2 18.2 8.6 36.3 13.1 54.4l7.4 30.6 9.5 25 30 10a330.6 330.6 0 01 26.9 49.4l13.2 27.1c10 23.5 10 23.5 10 43.5l50-10c-22 22.3-39.2 29.6-68.3 41.3l-26.1 10.7c-25.1 8-25.1 8-65.1 8v20l-60 10 30-30a4477.6 4477.6 0 00-100-190c-14.4 14.5-15.5 30.4-20 50-18.5-31.3-22-53.7-20-90h20l-10-40h20l-10-40-20 10-20-90h-30v-20h20l-10-90 40 20 10-20 40 10-10-50Zm-90 170h20c20 41.2 21.8 74.5 20 120h-20c-11.4-42.7-20-75.6-20-120Z" fill="#E8C579"/><path d="M3300 0h180v800l-50-50c-22.7-8-22.7-8-45.6-8.1l-22.6-1.5A3143 3143 0 00 3300 740V600h150V450h-150V300h150V150h-150V0Z" fill="#FEFEFE"/><path d="M3010 870v30l29.4 3.8L3070 910l10 20-10 30h30l10-40 50-10-20 20c-5 18.4-9.2 37-13.1 55.6-13.5 57-32.5 106.6-66.9 154.4l-20 10-10 30 18.8-20c21.2-20 21.2-20 41.2-20l5.5-16.9c8-24.4 16.3-48.7 24.5-73.1l7.6-23.4c6.6-19.2 14.4-38 22.4-56.6l30-10 10-60h10c1.8 94.1 1.8 94.1-10 140h-20l-6.9 21.3c-16.3 35.6-37.2 59.4-63.1 88.7 5.6-3 11.1-6.2 16.9-9.4A272.7 272.7 0 01 3190 1120v30l-30 10-10 50h20l6.3-23.1c18-35.1 38-42.2 73.7-56.9-11.7 33.4-21.9 57.7-50 80h-20l-6.9 21.3c-19.4 42.5-45.4 76.7-84.4 103C3070 1340 3070 1340 3040 1330c14-41 33.7-69.8 61.3-103.1A4630649386.6 4630649386.6 0 00 3140 1180c-35.4 11.8-38.1 19-56.9 50-28.4 44.8-61.1 82.3-97.7 120.5-18.5 19.3-18.5 19.3-15.4 49.5l-50 20v-30h20l2.5-22.7c9.1-33.2 20.8-43 47.5-64.2 29.6-22.8 29.6-22.8 50-53.1a5807 5807 0 00-59 51.4 3622.2 3622.2 0 01-50.4 43.6c-25.8 31.4-28.2 55-30.6 95l-50-20v-30l30-10c15.3-16.9 15.3-16.9 29.4-37.5l15.6-21.7L2940 1300c13.2-16.7 26.5-33.4 40-50h-30l-6.9 21.9c-15.6 33.4-36.1 53.3-63.1 78.1l-20-10 40-70h-30l-7.5 27.5c-12.9 33.5-25.7 49.3-52.5 72.5-8.5-67-8.5-67 14.5-102.2a4059 4059 0 01 38-44.6c26.1-34.6 37.1-71.5 47.5-113.2h20l4.4-38.1A330 330 0 01 2950 1000h20v20h20c-3.6 80.4-46.2 144.3-90 210h30l2.5-15.6c10.7-34.8 28.9-63.1 47.5-94.4h20c-8.8 47.5-8.8 47.5-20 70l30-10c35.5-73.5 41.6-149.8 40-230h-20v50l-60-10v-20l-30-10v-10h60v-20l-90-20c36.8-36.8 48.5-40 100-40Z" fill="#EDCA80"/><path d="M3447.7 773.4C3460 790 3460 790 3458.7 822.4c-16.2 69.6-47.1 124.3-86.8 182.6l-13.4 19.8c-30.3 44.4-60.4 87.1-98.5 125.2h-50l-10 20-10 20h-20v20h-20c-2.5-23.1-2.5-23.1 0-50 20-18.1 20-18.1 40-30-39.3 5.7-39.3 5.7-70 30l-30-10 15-19 19.4-24.7 19.3-24.7c16.5-20.5 16.5-20.5 26.3-41.6h20l10-170c-37.5-14-37.5-14-60 0v-20l-40-20c43-12.6 68.8-6.3 110 10-9.6-23.3-9.6-23.3-40-40 78.3-33.9 199.2-86 277.7-26.6Z" fill="#EBC87D"/><path d="m1630 1090 50 30 10-20v20l30 10 18.1 28.1c24 34.8 46 50.5 81.9 71.9l30 20v20l40-10 40 60a847.6 847.6 0 00-20-70h30c23.6 25.3 30 34.7 30 70l17.5 6.9c28.1 16.4 42.8 37.5 62.5 63.1l20 10c-12.9 28.7-25.7 49.8-50 70h-20l-10 30h-20v20c-16.8 17-16.8 17-38.8 35.6l-21.7 18.8C1890 1590 1890 1590 1870 1600l-15-28.1c-25.8-45.6-57.4-86.6-89-128.3C1750 1420 1750 1420 1750 1400h30a221 221 0 01 26.9 40l13.2 22.5 10 17.5c-12.3-55.5-32.4-90.7-70.7-133.1-48.7-55.6-48.7-55.6-59.4-76.9l-25-13.8c-25-16.2-25-16.2-32.5-35.6L1640 1200l-5.6-22.5L1630 1160l40-10v20h20c16.3 20 16.3 20 30 40-5.7-28.7-8.6-38.6-30-60l-25.6-8.8C1640 1130 1640 1130 1631.9 1108.8L1630 1090Z" fill="#E6C479"/><path d="M690 2200h10l3.1 23.8c4.7 29.5 4.7 29.5 36.9 46.2-11.8 85.3-86.2 136.4-148 190a642.2 642.2 0 00-57.6 60.6A677 677 0 01 420 2630h-20l-7.5 17.5A221.5 221.5 0 01 340 2710h-20l-8.1 18.1A160.3 160.3 0 01 270 2780h-20l-8.2 24.4-12 25.6-30 10-10 30v-20h-40v-150h150v-150h150v-150h150v-150h90v-50Z" fill="#EDEDEB"/><path d="M750 750h150c7.8 78.4 7.8 78.4 0 120-25.8 28.2-56.4 42.6-90 60-41 29.6-41 29.6-70 70h-20l-7.5 17c-19.5 36-46.6 65.4-72.8 96.7-24 30.3-24 30.3-49.7 86.3H450v-150h150V900h150V750Z" fill="#FEFEFE"/><path d="m2510 1140 10 30c22.8 6.7 45.2 9.5 68.7 12.8 21.3 7.2 21.3 7.2 34 25.5 10.3 30.8 8.5 59.5 7.3 91.7l10-100h20l10 100h-20l-10 60h-30l-20-30-10 40h-40l-20 40-20-10v-50l-10 70h-20v-20h-20l-10 50h-20l-10-20c-10 24.7-10 24.7-20 50-13.7-23.2-20.2-36.4-18.8-63.8-1.7-37-20.3-56.1-41.2-86.2-12.5-33.8-12.5-33.8-20-60h-20v-60l-20-10 20.5-2.6a449.1 449.1 0 00 168.6-58.1c21-9.3 21-9.3 51 .7Z" fill="#E9C67C"/><path d="M180 2880h10l-10 90h20v-50l20-10-20 100c-50-10-50-10-60-20v50l90-20v-30h70c12.5 25 7.8 34.1 0 60l36.9-10c31.8-8 60-12 93.1-10v-20l80-30-170 40v-20a2926 2926 0 01 230-60v50a1011.8 1011.8 0 01-220 80l-33.1 8.1c-27 1.9-27 1.9-55-8.1-38-11.9-63-7.5-101.4 0-20.5 0-20.5 0-38.2-14.7L110 3040c-57.7 74.8-85.1 134.7-80 230l20 10v-50l20 10v20l28.8-15C130 3230 130 3230 150 3230v-20c83-32.3 83-32.3 130-29.4 67.3 3 124.3-36.9 180-70.6h20v-20l-28.6 6.6c-81.9 17.7-157.1 27.6-241.4 23.4v-20l22.1-.8c123.3-6.7 248.8-28.3 362.2-78.5 46-19.2 94-33.2 141.5-48.2A439.3 439.3 0 00 820 2930h20c-11.9 35.6-18.8 38.2-50.6 55.6l-22.3 12.6c-28.3 12.3-56.4 18.8-86.4 25.9-34.2 10-64.1 26.8-95 44a1440.8 1440.8 0 00-144.4 88.7c-74.3 48.4-140.4 75.5-229.4 74.4l-29.6-.2-22.3-1v20c-94.1 44-94.1 44-140 50-25-37.4-25.6-66.7-20-110a429.3 429.3 0 01 33.8-75.6l10.6-20.5A1728.4 1728.4 0 01 180 2880Z" fill="#E0BE76"/><path d="M500 1450h10c12.2 59 21 116.7 24.4 176.9 3.4 53.7 14.6 93.8 35.6 143.1v30l30 10-10 30h30l12.5 30.6A973.6 973.6 0 00 690 1980a294.2 294.2 0 01 31.3 87.5l5 24.2L730 2110l30-10c40 56.3 40 56.3 40 90l60-10c-31.1 31.1-70.4 32.9-112.5 42.2-28.7 5.7-28.7 5.7-47.5 27.8l-7.4-30.8c-11.4-39.7-31.3-71.8-53.9-106a1114 1114 0 01-93-187.6l-10-25c-36.9-95.5-48.7-175.3-47.6-277.5v-33.7c.3-48 1.2-92.5 12-139.4Z" fill="#A4814E"/><path d="M1270 1740h30l30 30h30l10 50h10v80h-20l10 30v30l-21.5 8-27.9 10.7-27.7 10.6c-24.4 8.5-24.4 8.5-32.9 30.7-25.6 6.3-25.6 6.3-50 10l-25-48.8-14-27.4C1160 1930 1160 1930 1160 1910l-70-10 18.8 31.3A440.7 440.7 0 01 1150 2030c-18.1-5.6-18.1-5.6-40-20a1959.7 1959.7 0 01-30-70l-20.6-23.8c-26.7-36-32.2-72.5-39.4-116.2l30 10c22-13.7 22-13.7 40-30l4.8 17.1c7 22.2 14.1 42.4 25.2 62.9 25.7 11.3 25.7 11.3 50 10l10 30c-5.7-28.7-8.6-38.6-30-60a899 899 0 01-10-60h60l20-30 20 30 30-10v-30Z" fill="#E9C67A"/><path d="M1950 750h150v150h150v150c-77 8.8-77 8.8-120 0-26-22.6-43-45.5-61.8-74.2-26.3-37.2-60-59.7-96.3-86.4-33.9-45.5-25.3-83.7-21.9-139.4Z" fill="#FEFEFE"/><path d="M1440 1640c77.4-4 145.2 10.6 220 30 1 38-.2 73.1-10 110-23.4 24.3-49.5 36.3-80 50l-26.9 18.1c-26.5 13.6-43.7 13.5-73.1 11.9l-10 10c-20 .4-40 .4-60 0 6.7-78.2 22.7-153.5 40-230Z" fill="#F4F4F4"/><path d="m1630 1090 50 30 10-20v20l30 10 18.1 28.1c24 34.8 46 50.5 81.9 71.9l30 20v20l40-10c40 57.5 40 57.5 40 80l-16.9-8.8c-23.3-12-23.3-12-50-20L1840 1300a779 779 0 01-10-40c-19-12.4-19-12.4-40-20l-20-10 19 22.7 24.7 29.8 24.7 29.5A301.4 301.4 0 01 1880 1380c-26.2-10.5-38-16.5-52.5-41.3L1820 1320h-20v-20h-20a1414 1414 0 01-50-50 1241.7 1241.7 0 00 110 154.6 1201 1201 0 01 67.7 97.3c12.4 19.4 12.4 19.4 32.3 38.1-47.5 48.8-47.5 48.8-70 60l-15-28.1c-25.8-45.6-57.4-86.6-89-128.3C1750 1420 1750 1420 1750 1400h30a221 221 0 01 26.9 40l13.2 22.5 10 17.5c-12.3-55.5-32.4-90.7-70.7-133.1-48.7-55.6-48.7-55.6-59.4-76.9l-25-13.8c-25-16.2-25-16.2-32.5-35.6L1640 1200l-5.6-22.5L1630 1160l40-10v20h20c16.3 20 16.3 20 30 40-5.7-28.7-8.6-38.6-30-60l-25.6-8.8C1640 1130 1640 1130 1631.9 1108.8L1630 1090Z" fill="#E0BE76"/><path d="m1190 2720 20 10-10 120h-150v150H900l-10-100c82.9-60.9 169.8-111.1 260-160l23.5-13.2L1190 2720Z" fill="#ECECEB"/><path d="M870 1660h20l10 40-30 10 30 90 10-10v-40h20l10 50h20l-1.3 35.6c.2 41.1 5.9 75.9 21.3 114.4l18.8 8.5c29.8 16.2 38.2 36.7 53.7 66.5l15.8 29.7C1080 2080 1080 2080 1080 2100c-37.3 20.3-56.7 30-100 30l-25-42.5-14-24C930 2040 930 2040 930 2000l-18.8-1.9C890 1990 890 1990 877.5 1967.5A224 224 0 01 870 1890l20-10c27.5 23.7 36.8 46.6 50 80l20 10-11-21.2-14-27.5-14-27.5C910 1870 910 1870 910 1850h-40c-20-41.2-21.8-74.5-20-120h-30v60c-11.3-17.5-11.3-17.5-20-40 10.8-39.6 36-50.3 70-70v-20Z" fill="#EBC87E"/><path d="M3150 600h150v140l-31.5 11.7-42.3 15.8-22 8.2a3227.4 3227.4 0 00-144 57.7C3040 840 3040 840 3000 840v-90h150V600Z" fill="#EEE"/><path d="M830 1910c58.9 67.6 95.3 148 130 230-53.8 35.5-95.8 47-160 50-40-67.5-40-67.5-40-90h-20l-10 20-10-30 30-10-20-10c-4-23.2-7.4-46.6-10-70h20a529 529 0 01 30 50l-10-30a2636 2636 0 01-10-50l18.1 6.9L790 1980c17.7-13.5 17.7-13.5 30-30l10 30v-70Z" fill="#E6C379"/><path d="M2550 900h150l10 100-35 18.8a1770.2 1770.2 0 00-115.6 69.5c-14 9-28 17.9-41.8 27-38.3 24.4-73.4 42.4-117.6 54.7v-120h150V900Z" fill="#EEE"/><path d="m560 1940 15.7 32.2 21.2 42.8 11 22.3A875.3 875.3 0 00 670 2145.6c23.6 40.6 24.7 58.9 20 104.4h-90v-150H450v-150l43.8-5 24.6-2.8C540 1940 540 1940 560 1940Z" fill="#FCFCFB"/><path d="M830 2210a277 277 0 00 90 10l10 30-50 20v20h-20l60 110h190c-52.6 52.6-150 49.6-220 50a314.9 314.9 0 01-70-20l-10-50h-20l-12.4-23.7-16.4-30.7-16.1-30.6c-12.7-26-12.7-26-35.1-35l10-40c73.2-24 73.2-24 110-10Z" fill="#854033"/><path d="M1050 600h150v120l-54.4 25C1063.6 783 981.8 821.4 900 860V750h150V600Z" fill="#EEE"/><path d="m1810 2440 20 10-20 20c-4.6 19.7-4.6 19.7-6.3 41.3L1800 2550h-150v150h-150l-10-110 48.1-19.4c58.7-24.4 116.3-51 173.8-78.1l25.7-12.1 24-11.5 21.7-10.3c16.6-7.5 16.6-7.5 26.7-18.6Z" fill="#ECECEA"/><path d="M1780 940c27.8 17 38.5 24.8 47.5 56.9L1830 1020l30-10 40 40-10 30a166.5 166.5 0 01-70-30 710 710 0 00 120 100l-10 20c-30 0-30 0-51.9-20.6l-12.7-13.6c-29.9-30.7-63-57.9-95.4-85.8l10 30 17.5 8.1c23.2 12.3 32.5 22.4 48.8 42.5 20.4 29.5 20.4 29.5 43.7 39.4l-10 50h-30l20 50h-20v-20l-16.9-8.1c-49-25.2-80-47.1-113.1-91.9l-22.5-26.9C1680 1100 1680 1100 1680 1080c19.4 3.1 19.4 3.1 40 10l10 30h30a378 378 0 01 50 50v20h30a9747.5 9747.5 0 00-52.7-61.5c-16-19.3-16-19.3-37.3-28.5v-30l-30 10-10-30h-30c-16.9-15-16.9-15-30-30l-10 30-10-60 30-10a182.8 182.8 0 01 36.9 28.1l18.8 16.5C1730 1040 1730 1040 1730 1060l18.1-20c21.9-20 21.9-20 51.9-20v-30l-30-10-10-30 20-10Z" fill="#EECA80"/><path d="M1650 600h150v150h150v100c-44.3-16.6-85.5-37.8-127.5-59.4C1766 762 1711.1 737.5 1650 720V600Z" fill="#EEE"/><path d="m1060 800-53.1 30-30 16.9C950 860 950 860 920 860v20h20l10 30 140 10v-20l-50-20v-20c57.8-1.2 112.8 1.7 170 10v20h-40l-30 90-28.1-.6c-32.1-1-32.1-1-61.9 10.6v-30l-50 10v-20h-20l-10 30-10-30h-30l-10-10-10 40h-50l-20-50c-40 26.8-72 50.2-100 90h-20v-20h20l7.4-17.7c39.8-70.6 127.9-113.4 196.4-153l20.9-12.2c36.4-20.4 55.4-30.5 95.3-17ZM850 930v20l30-10-30-10Z" fill="#E6C478"/><path d="M840 2930c-11.9 35.6-18.8 38.2-50.6 55.6l-22.3 12.6c-28.3 12.3-56.4 18.8-86.4 25.9-34.2 10-64.1 26.8-95 44a1440.8 1440.8 0 00-144.4 88.7c-74.3 48.4-140.4 75.5-229.4 74.4l-29.6-.2-22.3-1v20l-38.1 15-21.5 8.4C80 3280 80 3280 50 3280v-50l20 10v20l28.8-15C130 3230 130 3230 150 3230v-20c83-32.3 83-32.3 130-29.4 67.3 3 124.3-36.9 180-70.6h20v-20l-28.6 6.6c-81.9 17.7-157.1 27.6-241.4 23.4v-20l22.1-.8c123.3-6.7 248.8-28.3 362.2-78.5 46-19.2 94-33.2 141.5-48.2 34.5-12.6 68-42.5 104.2-42.5Z" fill="#B39359"/><path d="m2440 1970 20 10-70 60c16.2-32.3 24.8-47 50-70Zm-100 100 20 10-10 10 50 10v150h-150v-70l-20-10 16.4-14.3 21.7-18.8 22-18.7c17.5-15.5 34-31.5 50.5-48.2Z" fill="#ECECEA"/><path d="M3300 3300h150v150h-150v-150Zm-300 0h150v150h-150v-150Zm-300 0h150v150h-150v-150Zm-300 0h150v150h-150v-150Zm-300 0h150v150h-150v-150Zm-300 0h150v150h-150v-150Zm-300 0h150v150h-150v-150Z" fill="#FFF"/><path d="M1350 3300h150v150h-150v-150Z" fill="#EEE"/><path d="M1200 3300h150v150h-150v-150Z" fill="#FFF"/><path d="M1050 3300h150v150h-150v-150Z" fill="#EEE"/><path d="M900 3300h150v150H900v-150Z" fill="#FFF"/><path d="M750 3300h150v150H750v-150Z" fill="#EEE"/><path d="M600 3300h150v150H600v-150Z" fill="#FFF"/><path d="M450 3300h150v150H450v-150Z" fill="#EEE"/><path d="M300 3300h150v150H300v-150Z" fill="#FFF"/><path d="M150 3300h150v150H150v-150Z" fill="#EEE"/><path d="M3150 3150h150v150h-150v-150Zm-300 0h150v150h-150v-150Z" fill="#FFF"/><path d="M2700 3150h150v150h-150v-150Z" fill="#EEE"/><path d="M2550 3150h150v150h-150v-150Z" fill="#FFF"/><path d="M2400 3150h150v150h-150v-150Z" fill="#EEE"/><path d="M2250 3150h150v150h-150v-150Z" fill="#FFF"/><path d="M2100 3150h150v150h-150v-150Z" fill="#EEE"/><path d="M1950 3150h150v150h-150v-150Z" fill="#FFF"/><path d="M1800 3150h150v150h-150v-150Z" fill="#EEE"/><path d="M1650 3150h150v150h-150v-150Z" fill="#FFF"/><path d="M1500 3150h150v150h-150v-150Z" fill="#EEE"/><path d="M1350 3150h150v150h-150v-150Z" fill="#FFF"/><path d="M1200 3150h150v150h-150v-150Z" fill="#EEE"/><path d="M1050 3150h150v150h-150v-150Z" fill="#FFF"/><path d="M900 3150h150v150H900v-150Z" fill="#EEE"/><path d="M750 3150h150v150H750v-150Z" fill="#FFF"/><path d="M600 3150h150v150H600v-150Z" fill="#EEE"/><path d="M450 3150h150v150H450v-150Zm2850-150h150v150h-150v-150Z" fill="#FFF"/><path d="M3150 3000h150v150h-150v-150Z" fill="#EEE"/><path d="M3000 3000h150v150h-150v-150Zm-300 0h150v150h-150v-150Z" fill="#FFF"/><path d="M2550 3000h150v150h-150v-150Z" fill="#EEE"/><path d="M2400 3000h150v150h-150v-150Z" fill="#FFF"/><path d="M2250 3000h150v150h-150v-150Z" fill="#EEE"/><path d="M2100 3000h150v150h-150v-150Z" fill="#FFF"/><path d="M1950 3000h150v150h-150v-150Z" fill="#EEE"/><path d="M1800 3000h150v150h-150v-150Z" fill="#FFF"/><path d="M1650 3000h150v150h-150v-150Z" fill="#EEE"/><path d="M1500 3000h150v150h-150v-150Z" fill="#FFF"/><path d="M1350 3000h150v150h-150v-150Z" fill="#EEE"/><path d="M1200 3000h150v150h-150v-150Z" fill="#FFF"/><path d="M1050 3000h150v150h-150v-150Z" fill="#EEE"/><path d="M900 3000h150v150H900v-150Z" fill="#FFF"/><path d="M3300 2850h150v150h-150v-150Z" fill="#EEE"/><path d="M3150 2850h150v150h-150v-150Z" fill="#FFF"/><path d="M3000 2850h150v150h-150v-150Z" fill="#EEE"/><path d="M2850 2850h150v150h-150v-150Zm-300 0h150v150h-150v-150Z" fill="#FFF"/><path d="M2400 2850h150v150h-150v-150Z" fill="#EEE"/><path d="M2250 2850h150v150h-150v-150Z" fill="#FFF"/><path d="M2100 2850h150v150h-150v-150Z" fill="#EEE"/><path d="M1950 2850h150v150h-150v-150Z" fill="#FFF"/><path d="M1800 2850h150v150h-150v-150Z" fill="#EEE"/><path d="M1650 2850h150v150h-150v-150Z" fill="#FFF"/><path d="M1500 2850h150v150h-150v-150Z" fill="#EEE"/><path d="M1350 2850h150v150h-150v-150Zm-300 0h150v150h-150v-150Zm2250-150h150v150h-150v-150Z" fill="#FFF"/><path d="M3150 2700h150v150h-150v-150Z" fill="#EEE"/><path d="M3000 2700h150v150h-150v-150Z" fill="#FFF"/><path d="M2850 2700h150v150h-150v-150Z" fill="#EEE"/><path d="M2700 2700h150v150h-150v-150Zm-300 0h150v150h-150v-150Z" fill="#FFF"/><path d="M2250 2700h150v150h-150v-150Z" fill="#EEE"/><path d="M2100 2700h150v150h-150v-150Z" fill="#FFF"/><path d="M1950 2700h150v150h-150v-150Z" fill="#EEE"/><path d="M1800 2700h150v150h-150v-150Z" fill="#FFF"/><path d="M1650 2700h150v150h-150v-150Z" fill="#EEE"/><path d="M1500 2700h150v150h-150v-150Z" fill="#FFF"/><path d="M1350 2700h150v150h-150v-150Z" fill="#EEE"/><path d="M0 2700h150v150H0v-150Z" fill="#FFF"/><path d="M3300 2550h150v150h-150v-150Z" fill="#EEE"/><path d="M3150 2550h150v150h-150v-150Z" fill="#FFF"/><path d="M3000 2550h150v150h-150v-150Z" fill="#EEE"/><path d="M2850 2550h150v150h-150v-150Z" fill="#FFF"/><path d="M2700 2550h150v150h-150v-150Z" fill="#EEE"/><path d="M2550 2550h150v150h-150v-150Zm-300 0h150v150h-150v-150Z" fill="#FFF"/><path d="M2100 2550h150v150h-150v-150Z" fill="#EEE"/><path d="M1950 2550h150v150h-150v-150Zm-300 0h150v150h-150v-150Zm-1500 0h150v150H150v-150Z" fill="#FFF"/><path d="M0 2550h150v150H0v-150Z" fill="#EEE"/><path d="M3300 2400h150v150h-150v-150Z" fill="#FFF"/><path d="M3150 2400h150v150h-150v-150Z" fill="#EEE"/><path d="M3000 2400h150v150h-150v-150Z" fill="#FFF"/><path d="M2850 2400h150v150h-150v-150Z" fill="#EEE"/><path d="M2700 2400h150v150h-150v-150Z" fill="#FFF"/><path d="M2550 2400h150v150h-150v-150Z" fill="#EEE"/><path d="M2400 2400h150v150h-150v-150Zm-300 0h150v150h-150v-150Z" fill="#FFF"/><path d="M1950 2400h150v150h-150v-150Z" fill="#EEE"/><path d="M300 2400h150v150H300v-150Z" fill="#FFF"/><path d="M150 2400h150v150H150v-150Z" fill="#EEE"/><path d="M0 2400h150v150H0v-150Z" fill="#FFF"/><path d="M3300 2250h150v150h-150v-150Z" fill="#EEE"/><path d="M3150 2250h150v150h-150v-150Z" fill="#FFF"/><path d="M3000 2250h150v150h-150v-150Z" fill="#EEE"/><path d="M2850 2250h150v150h-150v-150Z" fill="#FFF"/><path d="M2700 2250h150v150h-150v-150Z" fill="#EEE"/><path d="M2550 2250h150v150h-150v-150Z" fill="#FFF"/><path d="M2400 2250h150v150h-150v-150Z" fill="#EEE"/><path d="M2250 2250h150v150h-150v-150Zm-1800 0h150v150H450v-150Z" fill="#FFF"/><path d="M300 2250h150v150H300v-150Z" fill="#EEE"/><path d="M150 2250h150v150H150v-150Z" fill="#FFF"/><path d="M0 2250h150v150H0v-150Z" fill="#EEE"/><path d="M3300 2100h150v150h-150v-150Z" fill="#FFF"/><path d="M3150 2100h150v150h-150v-150Z" fill="#EEE"/><path d="M3000 2100h150v150h-150v-150Z" fill="#FFF"/><path d="M2850 2100h150v150h-150v-150Z" fill="#EEE"/><path d="M2700 2100h150v150h-150v-150Z" fill="#FFF"/><path d="M2550 2100h150v150h-150v-150Z" fill="#EEE"/><path d="M2400 2100h150v150h-150v-150Z" fill="#FFF"/><path d="M450 2100h150v150H450v-150Z" fill="#EEE"/><path d="M300 2100h150v150H300v-150Z" fill="#FFF"/><path d="M150 2100h150v150H150v-150Z" fill="#EEE"/><path d="M0 2100h150v150H0v-150Z" fill="#FFF"/><path d="M3300 1950h150v150h-150v-150Z" fill="#EEE"/><path d="M3150 1950h150v150h-150v-150Z" fill="#FFF"/><path d="M3000 1950h150v150h-150v-150Z" fill="#EEE"/><path d="M2850 1950h150v150h-150v-150Z" fill="#FFF"/><path d="M2700 1950h150v150h-150v-150Z" fill="#EEE"/><path d="M2550 1950h150v150h-150v-150Z" fill="#FFF"/><path d="M300 1950h150v150H300v-150Z" fill="#EEE"/><path d="M150 1950h150v150H150v-150Z" fill="#FFF"/><path d="M0 1950h150v150H0v-150Z" fill="#EEE"/><path d="M3300 1800h150v150h-150v-150Z" fill="#FFF"/><path d="M3150 1800h150v150h-150v-150Z" fill="#EEE"/><path d="M3000 1800h150v150h-150v-150Zm-300 0h150v150h-150v-150Zm-2400 0h150v150H300v-150Z" fill="#FFF"/><path d="M150 1800h150v150H150v-150Z" fill="#EEE"/><path d="M0 1800h150v150H0v-150Z" fill="#FFF"/><path d="M3300 1650h150v150h-150v-150Z" fill="#EEE"/><path d="M3150 1650h150v150h-150v-150Zm-300 0h150v150h-150v-150Zm-2700 0h150v150H150v-150Z" fill="#FFF"/><path d="M0 1650h150v150H0v-150Z" fill="#EEE"/><path d="M3300 1500h150v150h-150v-150Zm-300 0h150v150h-150v-150Zm-2700 0h150v150H300v-150Z" fill="#FFF"/><path d="M150 1500h150v150H150v-150Z" fill="#EEE"/><path d="M0 1500h150v150H0v-150Zm3150-150h150v150h-150v-150Zm-3000 0h150v150H150v-150Z" fill="#FFF"/><path d="M0 1350h150v150H0v-150Z" fill="#EEE"/><path d="M3300 1200h150v150h-150v-150Zm-3000 0h150v150H300v-150Z" fill="#FFF"/><path d="M150 1200h150v150H150v-150Z" fill="#EEE"/><path d="M0 1200h150v150H0v-150Z" fill="#FFF"/><path d="M300 1050h150v150H300v-150Z" fill="#EEE"/><path d="M150 1050h150v150H150v-150Z" fill="#FFF"/><path d="M0 1050h150v150H0v-150Z" fill="#EEE"/><path d="M2400 900h150v150h-150V900Z" fill="#FFF"/><path d="M2250 900h150v150h-150V900ZM450 900h150v150H450V900Z" fill="#EEE"/><path d="M300 900h150v150H300V900Z" fill="#FFF"/><path d="M150 900h150v150H150V900Z" fill="#EEE"/><path d="M0 900h150v150H0V900Zm2550-150h150v150h-150V750Z" fill="#FFF"/><path d="M2400 750h150v150h-150V750Z" fill="#EEE"/><path d="M2250 750h150v150h-150V750Z" fill="#FFF"/><path d="M2100 750h150v150h-150V750ZM600 750h150v150H600V750Z" fill="#EEE"/><path d="M450 750h150v150H450V750Z" fill="#FFF"/><path d="M300 750h150v150H300V750Z" fill="#EEE"/><path d="M150 750h150v150H150V750Z" fill="#FFF"/><path d="M0 750h150v150H0V750Z" fill="#EEE"/><path d="M3000 600h150v150h-150V600Z" fill="#FFF"/><path d="M2850 600h150v150h-150V600Z" fill="#EEE"/><path d="M2700 600h150v150h-150V600Z" fill="#FFF"/><path d="M2550 600h150v150h-150V600Z" fill="#EEE"/><path d="M2400 600h150v150h-150V600Z" fill="#FFF"/><path d="M2250 600h150v150h-150V600Z" fill="#EEE"/><path d="M2100 600h150v150h-150V600Z" fill="#FFF"/><path d="M1950 600h150v150h-150V600Z" fill="#EEE"/><path d="M1800 600h150v150h-150V600Zm-900 0h150v150H900V600Z" fill="#FFF"/><path d="M750 600h150v150H750V600Z" fill="#EEE"/><path d="M600 600h150v150H600V600Z" fill="#FFF"/><path d="M450 600h150v150H450V600Z" fill="#EEE"/><path d="M300 600h150v150H300V600Z" fill="#FFF"/><path d="M150 600h150v150H150V600Z" fill="#EEE"/><path d="M0 600h150v150H0V600Z" fill="#FFF"/><path d="M3300 450h150v150h-150V450Z" fill="#EEE"/><path d="M3150 450h150v150h-150V450Z" fill="#FFF"/><path d="M3000 450h150v150h-150V450Z" fill="#EEE"/><path d="M2850 450h150v150h-150V450Z" fill="#FFF"/><path d="M2700 450h150v150h-150V450Z" fill="#EEE"/><path d="M2550 450h150v150h-150V450Z" fill="#FFF"/><path d="M2400 450h150v150h-150V450Z" fill="#EEE"/><path d="M2250 450h150v150h-150V450Z" fill="#FFF"/><path d="M2100 450h150v150h-150V450Z" fill="#EEE"/><path d="M1950 450h150v150h-150V450Z" fill="#FFF"/><path d="M1800 450h150v150h-150V450Z" fill="#EEE"/><path d="M1650 450h150v150h-150V450Z" fill="#FFF"/><path d="M1500 450h150v150h-150V450Z" fill="#EEE"/><path d="M1350 450h150v150h-150V450Z" fill="#FFF"/><path d="M1200 450h150v150h-150V450Z" fill="#EEE"/><path d="M1050 450h150v150h-150V450Z" fill="#FFF"/><path d="M900 450h150v150H900V450Z" fill="#EEE"/><path d="M750 450h150v150H750V450Z" fill="#FFF"/><path d="M600 450h150v150H600V450Z" fill="#EEE"/><path d="M450 450h150v150H450V450Z" fill="#FFF"/><path d="M300 450h150v150H300V450Z" fill="#EEE"/><path d="M150 450h150v150H150V450Z" fill="#FFF"/><path d="M0 450h150v150H0V450Zm3150-150h150v150h-150V300Z" fill="#EEE"/><path d="M3000 300h150v150h-150V300Z" fill="#FFF"/><path d="M2850 300h150v150h-150V300Z" fill="#EEE"/><path d="M2700 300h150v150h-150V300Z" fill="#FFF"/><path d="M2550 300h150v150h-150V300Z" fill="#EEE"/><path d="M2400 300h150v150h-150V300Z" fill="#FFF"/><path d="M2250 300h150v150h-150V300Z" fill="#EEE"/><path d="M2100 300h150v150h-150V300Z" fill="#FFF"/><path d="M1950 300h150v150h-150V300Z" fill="#EEE"/><path d="M1800 300h150v150h-150V300Z" fill="#FFF"/><path d="M1650 300h150v150h-150V300Z" fill="#EEE"/><path d="M1500 300h150v150h-150V300Z" fill="#FFF"/><path d="M1350 300h150v150h-150V300Z" fill="#EEE"/><path d="M1200 300h150v150h-150V300Z" fill="#FFF"/><path d="M1050 300h150v150h-150V300Z" fill="#EEE"/><path d="M900 300h150v150H900V300Z" fill="#FFF"/><path d="M750 300h150v150H750V300Z" fill="#EEE"/><path d="M600 300h150v150H600V300Z" fill="#FFF"/><path d="M450 300h150v150H450V300Z" fill="#EEE"/><path d="M300 300h150v150H300V300Z" fill="#FFF"/><path d="M150 300h150v150H150V300Z" fill="#EEE"/><path d="M0 300h150v150H0V300Z" fill="#FFF"/><path d="M3300 150h150v150h-150V150Z" fill="#EEE"/><path d="M3150 150h150v150h-150V150Z" fill="#FFF"/><path d="M3000 150h150v150h-150V150Z" fill="#EEE"/><path d="M2850 150h150v150h-150V150Z" fill="#FFF"/><path d="M2700 150h150v150h-150V150Z" fill="#EEE"/><path d="M2550 150h150v150h-150V150Z" fill="#FFF"/><path d="M2400 150h150v150h-150V150Z" fill="#EEE"/><path d="M2250 150h150v150h-150V150Z" fill="#FFF"/><path d="M2100 150h150v150h-150V150Z" fill="#EEE"/><path d="M1950 150h150v150h-150V150Z" fill="#FFF"/><path d="M1800 150h150v150h-150V150Z" fill="#EEE"/><path d="M1650 150h150v150h-150V150Z" fill="#FFF"/><path d="M1500 150h150v150h-150V150Z" fill="#EEE"/><path d="M1350 150h150v150h-150V150Z" fill="#FFF"/><path d="M1200 150h150v150h-150V150Z" fill="#EEE"/><path d="M1050 150h150v150h-150V150Z" fill="#FFF"/><path d="M900 150h150v150H900V150Z" fill="#EEE"/><path d="M750 150h150v150H750V150Z" fill="#FFF"/><path d="M600 150h150v150H600V150Z" fill="#EEE"/><path d="M450 150h150v150H450V150Z" fill="#FFF"/><path d="M300 150h150v150H300V150Z" fill="#EEE"/><path d="M150 150h150v150H150V150Z" fill="#FFF"/><path d="M0 150h150v150H0V150ZM3150 0h150v150h-150V0Z" fill="#EEE"/><path d="M3000 0h150v150h-150V0Z" fill="#FFF"/><path d="M2850 0h150v150h-150V0Z" fill="#EEE"/><path d="M2700 0h150v150h-150V0Z" fill="#FFF"/><path d="M2550 0h150v150h-150V0Z" fill="#EEE"/><path d="M2400 0h150v150h-150V0Z" fill="#FFF"/><path d="M2250 0h150v150h-150V0Z" fill="#EEE"/><path d="M2100 0h150v150h-150V0Z" fill="#FFF"/><path d="M1950 0h150v150h-150V0Z" fill="#EEE"/><path d="M1800 0h150v150h-150V0Z" fill="#FFF"/><path d="M1650 0h150v150h-150V0Z" fill="#EEE"/><path d="M1500 0h150v150h-150V0Z" fill="#FFF"/><path d="M1350 0h150v150h-150V0Z" fill="#EEE"/><path d="M1200 0h150v150h-150V0Z" fill="#FFF"/><path d="M1050 0h150v150h-150V0Z" fill="#EEE"/><path d="M900 0h150v150H900V0Z" fill="#FFF"/><path d="M750 0h150v150H750V0Z" fill="#EEE"/><path d="M600 0h150v150H600V0Z" fill="#FFF"/><path d="M450 0h150v150H450V0Z" fill="#EEE"/><path d="M300 0h150v150H300V0ZM0 0h150v150H0V0Z" fill="#FFF"/><path d="M820 1730h30l20 120h40l25 48.8 14 27.4C960 1950 960 1950 960 1970c-19.4-6.3-19.4-6.3-40-20-7.5-31.3-7.5-31.3-10-60h-30l10 100 40 10c9.8 17.4 9.8 17.4 16.3 38.8 9 28.6 16.5 45.5 33.7 71.2v40l-60 10 30-30a4477.6 4477.6 0 00-100-190c-14.5 14.5-15.6 30.4-20 50-18.6-31.3-22-53.7-20-90h20l-10-40h20l-10-40-20 10-10-40h20v-60Zm-60 30h20c20 41.2 21.8 74.5 20 120h-20c-11.4-42.7-20-75.6-20-120Z" fill="#D5B36E"/><path d="M2500 1910c-14.2 33.4-30.8 51.6-58.8 74.4a419.8 419.8 0 00-61.2 60.6c-24.1 30.1-51.6 53.6-81 78.5-19 16-19 16-35.2 33.6C2250 2170 2250 2170 2230 2170v20l-30 10c-10.2 9.8-20.1 19.9-30 30-56.6 43.3-114.4 81.9-180 110l-20-10c24.5-18.4 49.1-36.7 73.8-55l21.1-15.9 20.3-15 18.8-14c16-10 16-10 36-10v-20c20-13.5 40-26.9 60-40 17-16.4 33.8-33 50-50-6.8 4.8-13.5 9.8-20.5 14.9l-27 19.4-26.7 19.3A157.8 157.8 0 01 2110 2190a750.9 750.9 0 01 94.4-82.5l28-21.4c30-17.5 43.8-18.6 77.6-16.1l30-10 7.5-21.9c17.6-39.6 47-63.7 82.5-88.1h20v-20c30-20 30-20 50-20Z" fill="#BE9E61"/><path d="m3310 830 30 10c5.6 64.6-13.7 111.5-40 170h-20l-6.9 21.3A255 255 0 01 3210 1120c-33.1-1.3-33.1-1.3-60-10l-7.5 19.4C3130 1150 3130 1150 3109.2 1156.3L3090 1160l12.4-16 16.3-21.5 16.2-21a384.2 384.2 0 00 35-61.5h20l10-130h30c-8.6 76.3-8.6 76.3-20 110h20l3.9-20.6c6.3-29.4 6.3-29.4 17-65.6 10.6-32.8 10.6-32.8 9.3-63.8h20c12.5 40.3 14.5 59.8-2.7 99.1a1742.1 1742.1 0 01-47.3 81c66.4-101.4 66.4-101.4 80-220Z" fill="#C8A765"/><path d="M3450 850c10 30 10 30-.8 58.6a1421.5 1421.5 0 01-234.2 335.2l-18.5 20c-33 34.6-33 34.6-46.5 46.2h-20l-6.9 17c-16.8 29.5-37.8 48-63.1 70.5l-26.9 24.2C3010 1440 3010 1440 2990 1440c15.2-38.7 38-54.4 70-80 31.6-33.7 61.2-69 90-105 18.4-23 37.1-45.7 56.3-68.1l17.8-21.2c16-15.7 16-15.7 36-15.7l7-16.3a376.5 376.5 0 01 47.9-64A1080.2 1080.2 0 00 3449.9 850Z" fill="#BE9D5E"/><path d="M500 1450h10c12.2 59 21 116.7 24.4 176.9 3.4 53.7 14.6 93.8 35.6 143.1v30l30 10-10 30h30l30 80-30-10v-20l-70 10-19.4-62.5-10.9-35.2c-19-63-23.2-120.9-26-186.7l-1.5-31.4-1.3-30.4-1.3-27.6A346 346 0 01 500 1450Z" fill="#B99859"/><path d="M2850 750h150v100l-63.8 25-35.8 14C2870 900 2870 900 2850 900V750Z" fill="#FEFEFE"/><path d="M3040 850c31.9 3.4 59.6 9.9 90 20l10-20 10 10 20-10c21.3 9.4 21.3 9.4 40 20l-9.4 21.3A409.1 409.1 0 00 3180 980l-30-10-1.9 23.1c-15.4 70-42.5 139.6-98.1 186.9h-20l10-40h20l8.1-26.9C3080 1080 3080 1080 3095 1057.5c22-40.2 27.6-82.6 35-127.5h-20v40l-40-10 10-80-60-10 20-20Z" fill="#ECC97C"/><path d="M450 3150v150H300v-60l-30-20 17.2-5.2c39.7-12.4 76.3-25.4 112.2-46.7C430 3150 430 3150 450 3150Z" fill="#ECECEA"/><path d="M840 2860v20l-17.2 9.5A10690 10690 0 00 680 2970l40 20-18.4 5.2a1251.3 1251.3 0 00-132.8 45.4C502.3 3067.6 442 3083 370 3080c14.3-28.6 31.3-29.2 61.3-39.4a1152 1152 0 00 98.7-38.1c30-12.5 30-12.5 60-12.5v-20l16.9-7.3a1947 1947 0 00 135.8-65.4C760 2890 760 2890 790 2890v-20c20-10 20-10 50-10Z" fill="#E8C57B"/><path d="M1080 1780c24.6 24.6 30 47 40 80l23.1.6c26.9 9.4 26.9 9.4 43.1 41.3L1200 1940c20.9 47.5 20.9 47.5 60 80l-50 10-25-48.8-14-27.4C1160 1930 1160 1930 1160 1910l-70-10 18.8 31.3A440.7 440.7 0 01 1150 2030c-18.1-5.6-18.1-5.6-40-20a1959.7 1959.7 0 01-30-70l-20.6-23.8c-26.7-36-32.2-72.5-39.4-116.2l30 10 30-30Z" fill="#DBB972"/><path d="M1760 2360v20l-30 20 10 30c-152.6 79.9-152.6 79.9-230 100l-20-10c56-28.5 112-56 170-80-18.3 7-36.6 13.8-55 20.7-18 6.7-36.2 13.2-54.5 19.5a3834631443.7 3834631443.7 0 01-58.3 20.2c-23.8 7.5-23.8 7.5-32.2 29.6-19 7.8-19 7.8-42.5 15-26 8.1-51 16.4-76.3 26.9-21.2 8.1-21.2 8.1-51.2 8.1v-20c30.9-17.6 42.3-20 80-20v-20l90-20v-20h50v-20l27.5-9.2c65.2-22.4 126.7-45.5 185.8-81.6C1740 2360 1740 2360 1760 2360Z" fill="#CEAD6A"/><path d="M1990 900c94.2 51.7 152.7 145.3 210.5 233.1 18.4 28.7 18.4 28.7 49.5 46.9h-30l7.5 16.9c2.5 23.1 2.5 23.1-16.3 49.4L2190 1270l-10 20h-20l-10 30-10-20-20 10-4.4-22.5c-4.6-22.7-9.8-45-15.6-67.5h50v-30h20l20 20c-6-41.4-21-73-40-110v-20l-24.4-7.5C2100 1060 2100 1060 2092 1038.7L2090 1020h-20l-2.8-18c-9-27.3-20.4-36-42.8-53.3-19.4-15-19.4-15-34.4-28.7v-20Z" fill="#C3A568"/><path d="M1100 2650a7929.4 7929.4 0 01-62.5 35l-17.8 10.1c-33.6 18.5-50.4 25-89.7 25v20l40 10-38.8 20-21.7 11.2C890 2790 890 2790 870 2790v-20c-40.9-2.4-71.8 5.8-110 20 25.5-29.8 55.3-42.7 90-60l10-20-80 10 30-30-10-30h20l20 30 30 10v-20l21.3 1.4c59.8 2.3 100.2-1 151.2-33.6 22.7-10.1 34.5-5.8 57.5 2.2Z" fill="#EDCA80"/><path d="M1500 600h150v110c-112.5-8-112.5-8-150-30v-80Z" fill="#FEFEFE"/><path d="M1040 860c57.8-1.2 112.8 1.7 170 10v20h-40l-30 90-28.1-.6c-32.1-1-32.1-1-61.9 10.6v-30l-50 10v-20h-20l-10 30-10-30-20-10c19.4-19.4 54.7-14 80.6-15.6l39.1-2.6L1090 920v-20l-50-20v-20Z" fill="#E4C279"/><path d="M870 1660h20l10 40-30 10 30 90 10-10v-40h20l10 50h20l-1.9 34.4c-.2 49 14.3 90.3 31.9 135.6h-30l-25-48.8-14-27.4C910 1870 910 1870 910 1850h-40c-20-41.2-21.8-74.5-20-120h-30v60c-11.3-17.5-11.3-17.5-20-40 10.8-39.6 36-50.3 70-70v-20Z" fill="#EDCA7F"/><path d="M1470 2400v20l-17.3 8.1c-25.7 12-51.4 24.2-77 36.3l-27.3 12.7-25.9 12.2-24 11.3c-18 8-18 8-28.5 19.4-14.3 2.5-28.7 4.7-43 6.9-56.4 10.4-102.2 33.7-152.3 60.7C1050 2600 1050 2600 1030 2600c10-30 10-30 32.9-41.7l27.7-10.2 27.9-10.4L1140 2530l-30-20c7.6-4.5 15.3-9 23.1-13.8A1402 1402 0 00 1190 2460h30v20c49.8 2.9 71.6 1 110-30 32.5-6.9 32.5-6.9 60-10v-20c29-12.6 48-20 80-20Z" fill="#D9B771"/><path d="m1090 2710-200 110v30l-16.9-1.8c-57.2-3.3-86.8 6.4-133.1 39.3-31.7 19.8-63.6 25.3-100 32.5v-20l18-7.7c63.3-26.9 63.3-26.9 122-62.3l10-30c20.6-11.9 20.6-11.9 40-20l-10-20 50 10v20l17-8.4c25.3-12.5 50.7-24.9 76.1-37.2l26.7-13.3 25.7-12.4 23.7-11.6c20.8-7 20.8-7 50.8 3Z" fill="#E7C47A"/><path d="M1460 1440c22.3-2.7 22.3-2.7 50 0 22 18.3 22 18.3 42.5 42.5l20.8 24A130.1 130.1 0 01 1600 1570c-29.6-28-54.4-51.8-70-90h-20l-10 60 27.5 1.9c40.1 10 50.7 23.7 72.5 58.1v20c-31.6-13.7-40-19.9-60-50l10 70c-21.1-18.3-29.8-29.3-38.8-56.3L1500 1560c-25.5-9-25.5-9-50-10l10 30-40-10v-30h30l-20-50h20l10-50Z" fill="#BA995B"/><path d="m500 3090 20 10c-103.4 92.7-223 137-360 130v20l-38.1 15-21.5 8.4C80 3280 80 3280 50 3280v-50l20 10v20l28.8-15C130 3230 130 3230 150 3230v-20c83-32.3 83-32.3 130-29.4 74 3 140.2-45.2 201.5-82L500 3090Z" fill="#B69559"/><path d="M3110 1180h30a398.6 398.6 0 01-55.6 86.3c-24.6 30.3-24.6 30.3-44.4 63.7h30c-2.6 35.2-12.4 42.1-40 66.3l-30 23.7-10 20 20 10-27.5 8.8A474.3 474.3 0 00 2910 1490a555.8 555.8 0 01 50-100l8.6-18.9c13.5-25 30-42.9 49.5-63.6a547.2 547.2 0 00 80.8-113.2L3110 1180Z" fill="#E8C57D"/><path d="M1970 2340v20c-72.3 54.6-160.6 91.2-241.7 131-24 11.8-47.7 24.2-71.4 36.5-138.7 68.8-138.7 68.8-187 52.5l15.2-7.7a1137 1137 0 00 90-48c38.3-22.6 79.3-38.6 121-54.5 70.7-27.9 132.5-62 196.2-103 26.3-16.3 45.8-26.8 77.1-26.8Z" fill="#BE9E5F"/><path d="M1350 600h150v80l30 10h-180v-90Z" fill="#EEE"/><path d="M1380 1700h50l-9.4 62.5-5.2 35.2A715 715 0 01 1400 1870h60l10-40v30h50c-43 37.4-90 63.4-140 90-19-23.9-30.2-40.7-40-70h20v20h20v-200Z" fill="#BF9E5F"/><path d="m2518.1 1752.5 21.9 7.5c3.1 22.5 3.1 22.5 0 50a300.8 300.8 0 01-73.8 52.5c-39 26-66.5 61.4-96.2 97.5l-10-30c14.4-21.9 14.4-21.9 30-40l-20-20c102.4-121.6 102.4-121.6 148.1-117.5Z" fill="#E3C17A"/><path d="M1450 1720c30 20 30 20 35.1 39.5l5 60.5h20c3.2-10 6.5-19.8 10-30l3 19.4 6.9 20.6 30 10c-31.6 18.7-53.6 21-90 20l-10 10c-20 .4-40 .4-60 0 9.6-94.1 9.6-94.1 20-140h10v70l4.4-23.1C1440 1750 1440 1750 1450 1720Z" fill="#F4F4F4"/><path d="M1730 1250c19.4 8.1 19.4 8.1 40 20l10 30h20v20h20c32 34 47.5 65.1 60 110h20c40 44.7 40 44.7 40 70h20l-10 30c-30.4-3.3-39.6-9.5-60.6-32.5-19.4-27.5-19.4-27.5-32.4-50-24.3-39.3-53.1-74.4-82-110.2-40.6-51.5-40.6-51.5-45-87.3Z" fill="#EECA81"/><path d="M3030 950h20c26.9 53.8 5.3 112.8-11.5 166.7A238.8 238.8 0 01 2970 1220l-20-10 19.4-28.1c21.5-30.3 21.5-30.3 30.6-61.9h-20l-2.5 15.6c-10.7 34.8-28.9 63.1-47.5 94.4h-30a631 631 0 01 51.3-103.8c25.5-45.7 35.6-74.4 28.7-126.2h20l10 100c20-39.9 22.3-54.7 21.3-97.5l-.6-29.8L3030 950Z" fill="#C5A463"/><path d="M1460 2300c6.9 25 10 43.8 10 70l-20.1 7.7c-56.3 21.9-56.3 21.9-109.3 50.4L1320 2440l-30-10 20.8-12.4 27.3-16.3 27-16.2c18.6-11.3 36.9-23 55-35-33.6 9.4-67 18.9-100 30v-30c-13.3 3.2-26.5 6.5-40 10 16.5-33.3 50-39 83.3-51.9 34.4-10.6 61-11.3 96.6-8.2Z" fill="#E4C27A"/><path d="M1310 2670a1569 1569 0 01-152.5 78.1c-100 46.3-188.5 104.2-277.5 169-20 13-20 13-40 13v-20c16.8-13 16.8-13 38.8-26.3l21.7-13.6C920 2860 920 2860 940 2860l10-30c16.3-10 32.7-20 49.6-29a1190 1190 0 00 61-35.7c198-121 198-121 249.4-95.3Z" fill="#BF9E5E"/><path d="M2870 1570c-24.6 60.5-79.2 98.3-128.8 138.1a792.4 792.4 0 00-113.9 113c-31.6 34.5-69.5 61.5-107.3 88.9 0-30 0-30 19-52.6l24.7-24.3 24.7-24.5C2610 1790 2610 1790 2630 1790l10-30c17.1-15.9 35-31 53.1-45.6l29.3-23.8A408 408 0 01 2790 1650a877 877 0 00 20-40c35.6-40 35.6-40 60-40Z" fill="#C1A05F"/><path d="M570 2940v50c-82.4 40.3-166.8 80-260 80v-20c41.2-13 76.7-22.6 120-20v-20l80-30-170 40v-20l140-40 19.6-5.8C547.9 2940 547.9 2940 570 2940Z" fill="#CBAA67"/><path d="M3450 3300h30v180h-180v-30h150v-150Z" fill="#EFEFEF"/><path d="M0 3000h100l-90 190H0v-190Z" fill="#FDFDFD"/><path d="M2840 1430h30c-15.6 38.2-40.7 61.5-70 90v10l50-40c-15.2 36-36.5 58.6-64.4 85.6l-23.7 23.2L2740 1620l-30 30 10-40h-20l-10 30-10-30 22.3-24.1 29.6-32.2 14.6-15.8c24.5-26.6 48-53.4 70.3-81.9L2840 1430Z" fill="#C7A664"/><path d="M1740 1510c-7.6 55.9-7.6 55.9-21.9 80.6-11 20.5-11 20.5.6 46.9L1730 1660h20l10 40-40 20v20l-20-10v-40h-20l-10 20-10-80h20l1.1-18.6 2-24.5 1.8-24.3c7.3-32.1 20.6-52.6 55-52.6Z" fill="#B59358"/><path d="m1550 1420 60 20v50l30 10a320.5 320.5 0 01 20 50h20l-20-28.8c-20-31.2-20-31.2-20-51.2 33.4 13.8 52.6 28 70 60-2.6 34-13.5 60.3-30 90l-13.1-23.1A249.5 249.5 0 00 1620 1540v20l-30-10 2.5-25.6c-3.3-44.8-18.5-66.9-42.5-104.4Z" fill="#D3B26D"/><path d="M2568.1 1098.1 2590 1110v30l50 10-10 80-21.3-18.8c-29.3-21.6-53.8-31.5-88.7-41.2v-20l-20-10-10-20c43-32 43-32 78.1-21.9Z" fill="#EAC982"/><path d="M2140 1050h110v120c-40-10-40-10-59.2-35l-18.3-30.6-18.6-30.7L2140 1050Z" fill="#EDEDED"/><path d="m2050 1250 50 10 30 90-40 40c-44-14.6-48.8-39.8-70-80h20l10-60Z" fill="#BB9A5C"/><path d="M920 1980c31.8 5.8 53.6 11 72.9 38 16.6 32.7 27 55 27 92l30 10-70 10c-56-92.3-56-92.3-60-150Z" fill="#EAC77C"/><path d="M600 3060v90H450a962.5 962.5 0 01 91.9-67.5l20.4-13C580 3060 580 3060 600 3060Z" fill="#EAEAE5"/><path d="M740 2100h20c40 53 40 53 40 90l60-10c-31.1 31.1-70.4 32.9-112.5 42.2-28.7 5.7-28.7 5.7-47.5 27.8-11.3-56.3-11.3-56.3 0-90h20l20 30c1.3-28.7 1.3-28.7-5.6-50.6C730 2120 730 2120 740 2100Z" fill="#BC9B5C"/><path d="M450 1350h70l-30 140-40 10v-150Zm2250-450h150c-31 31-49.6 47.6-86.3 67.5l-23.5 13C2720 990 2720 990 2700 990v-90Z" fill="#FDFDFD"/><path d="M1770 1530h20c13.2 14 13.2 14 26.9 32.5l13.8 18.3c9.3 19.2 9.3 19.2 7.6 41L1830 1640l-30 10-10 30c-20.6 6.9-20.6 6.9-40 10v-30h-20l-20-50h30l10 40 20-10v-20h20l-20-90Z" fill="#D2B16D"/><path d="M490 1460c9.7 31.9 10.5 58.9 8.8 92l-1.5 29.7c-.5 10.2-1 20.3-1.7 30.8l-1.6 31.3L490 1720h-10v-70h-30v-150l30-10 10-30Z" fill="#E5E4DA"/><path d="M900 2910v90H770c90-90 90-90 130-90Z" fill="#FCFCFB"/><path d="m1680 2300 10 20h20v20l-18 9.9-23.9 13.2-25 13.8c-17.2 9.8-34 20.3-50.6 31.2-26 13.8-43.4 14.4-72.5 11.9v-20l80-30-20-20c30-20 30-20 60-20v-20c20-10 20-10 40-10Z" fill="#D6B56F"/><path d="M2280 2000h20v20l40-20c7.5 17.5 7.5 17.5 10 40-16.3 22.5-16.3 22.5-40 40l-22.6-1.7c-38.6 2.4-60.5 23-89.3 46.7-55.9 45-55.9 45-78.1 45v-20c17.2-13 17.2-13 40.6-27.5 64.1-40.8 64.1-40.8 119.4-92.5v-30Z" fill="#E5C37A"/><path d="m1060 800-30.7 16-40.6 21.5-20.1 10.5A1289.4 1289.4 0 00 808 950l-19.8 14.4c-19.4 15.3-19.4 15.3-34.4 37.5l-14 18.1h-20v-20h20l7.5-17.7c39.8-70.6 127.9-113.4 196.4-153l20.9-12.2c36.4-20.4 55.4-30.5 95.3-17Z" fill="#D9C186"/><path d="m1130 2420-20.8 5.2-27.3 7.3-27 7c-29 12.2-37.7 24.9-54.9 50.5-39.6 22.5-66.3 20.2-110 10v-20l50-20-40-20 34-4a206124.1 206124.1 0 00 66.5-8c111.4-13.6 111.4-13.6 129.5-8Z" fill="#A98952"/><path d="M600 1890h20l10 20 30 10-.6 22.5c-.6 26.9-.6 26.9 6.9 49.4L670 2010l-20 20c-17-12.8-33.7-26.2-50-40v-20l-20-10 20-70Z" fill="#946241"/><path d="m1040 1630 10 30-40 10 15 28.8C1040 1730 1040 1730 1040 1750h20l10-40c20 30 20 30 20 60-16.9 6.9-16.9 6.9-40 10-27.5-14.4-27.5-14.4-50-30l10-40-70-20c20.7-28 31.4-30.3 66.9-36.9L1040 1650v-20Z" fill="#EECB81"/><path d="M950 1830h20l20 48.8 11.3 27.4C1010 1930 1010 1930 1010 1950l30 10a330.6 330.6 0 01 26.9 49.4l13.2 27.1c10 23.5 10 23.5 10 43.5l50-10-20 20c-24 0-24 0-50-10-19-26.2-19-26.2-36-58.8-18.5-35.2-34.3-64-63.5-91.2a177.7 177.7 0 01-20-100Z" fill="#BC9B5C"/><path d="M670 1700a904.9 904.9 0 01 40 40v20l-20 10 50-10-.4 18c-.4 42-.2 81 10.4 122l-30-10c-9.5-20.7-9.5-20.7-16.9-45.6l-7.6-25L690 1800h-50l20-40h20l-10-60Z" fill="#E4C177"/><path d="M230 2990h70c13.5 27 10.7 50 10 80l20 10-21.4-4.3c-28.8-5.7-57.8-11-86.7-16.3l-29.6-5.4L170 3050v-20l60-10v-30Z" fill="#E0BE75"/><path d="M3130 930h30c-3.3 84-35.3 170-90.7 234C3050 1180 3050 1180 3030 1180l10-40h20l8.1-26.9C3080 1080 3080 1080 3095 1057.5c22-40.2 27.6-82.6 35-127.5Z" fill="#C5A462"/><path d="M530 3080c-39.3 19-75.4 23.9-118.2 27.8-23 2-23 2-50 7.8-50.4 7-101 5-151.8 4.4v-20l23.2-1.1c77.4-4.8 149.4-16.7 224.7-34.6 33.1-4.4 45-3 72.1 15.7Z" fill="#C4A362"/><path d="m1890 2310 20 10v20l20 10c-62 42.6-115.2 77.3-190 90l20-60 20 20c31.2-13 31.2-13 50-40 19.8-7.3 39.8-14 60-20v-30Z" fill="#EDC97F"/><path d="M3040 850v20l40 10v30l-70-10v-30l-66.9 23.8-37.6 13.3A2278 2278 0 00 2820 940v-20l58.1-29.3 32.7-16.5c45.7-22 78.8-25 129.2-24Z" fill="#C9AD70"/><path d="M3455 756.9c18.4 28.3 23.5 49.4 25 83.1l-20 20c-10-20-10-20-9.4-45 2.2-26.8 2.2-26.8-20.6-45-74.4-13.4-145-7.5-220 0 67.4-45 175.3-60.2 245-13.1Z" fill="#D3BC84"/><path d="M2150 1190h20a335.8 335.8 0 01 30 60c-8.1 23.8-8.1 23.8-20 40h-20l-10 30-10-20-20 10-4.4-22.5c-4.6-22.7-9.8-45-15.6-67.5h50v-30Z" fill="#C5A463"/><path d="m2510 1140 10 30c25 12.2 25 12.2 50 20v10l-170-10c10-30 10-30 43.8-47.5C2480 1130 2480 1130 2510 1140Z" fill="#DAB870"/><path d="M540 1350c11.8 35.3 12 63 10 100l-20 30 40 20-5 31.3c-4.3 33.5-5.8 65-5 98.7h-20c-22.5-90.8-39.3-191.7 0-280Z" fill="#EFCB81"/><path d="m2490 1310 20 10v80c4.1-5 8.2-10 12.5-15C2540 1370 2540 1370 2580 1370v-60a136.3 136.3 0 01 30 30c0 31.9-12.7 43.2-33.8 67.5-32.4 27.9-45 22.5-86.2 22.5v-120Z" fill="#EECB80"/><path d="M1470 2440c-10 30-10 30-28.9 41.5l-24.4 10.8-26.7 11.8-28 12.2-27.9 12.3c-73.8 32.5-73.8 32.5-114 41.4v-20l140.7-70c17.8-9 35.5-18.3 53.2-27.6C1440 2440 1440 2440 1470 2440Z" fill="#CEAD6A"/><path d="M1910 1250h30c23.6 25.3 30 34.7 30 70l17.5 6.9c28.1 16.4 42.8 37.5 62.5 63.1l20 10-20 40c-38.8-47.5-38.8-47.5-50-70l-24.4-7.5C1950 1350 1950 1350 1938.1 1321.2L1930 1290a867.5 867.5 0 00-20-40Z" fill="#D3B16C"/><path d="M450 1650h30a6907 6907 0 01 15.6 73.2c4.3 26.2 5.2 50.4 4.4 76.8h-50v-150Z" fill="#FBFBFA"/><path d="M2760 1300h20v20l20 10c-36.3 58.8-36.3 58.8-70 70v40h-20v20h-40l10-40h30l8.8-29.4C2730 1360 2730 1360 2750 1350l-10-20 20-30Z" fill="#EECA80"/><path d="m110 3030 15 15.6c37.5 21.6 63 12 105 4.4l10 20-28.1 3.8c-33.3 4.4-33.3 4.4-62 26.2-20.9 2-20.9 2-42 1.3L70 3100c10.7-29.2 17.8-47.8 40-70Z" fill="#EECA7F"/><path d="M1600 2180c21.3 7.5 21.3 7.5 40 20l30 10c-15 42-42.3 58-80 80h-20c10-30 10-30 30-50h-30v-20l-20-10c22.5-16.3 22.5-16.3 50-30Z" fill="#DBB973"/><path d="M1070 1650c48 34.5 48 34.5 58.1 62.5L1130 1730l-40-10-10 20-10-10-10 20h-20c-30-43.8-30-43.8-30-70h60v-30Z" fill="#DAB871"/><path d="M80 3030c10 30 10 30 3 48.7l-11.1 20-11.3 21.5L50 3140c-22.5 45-21.7 80.5-20 130l40 20-50 10c-25-37.4-26.3-66.6-20-110 10.6-30 24.8-57.2 40-85l11.6-22A4451 4451 0 01 80 3030Z" fill="#D4C291"/><path d="M2250 1980c-30.3 70.9-102.3 134.5-170 170l-30-10a239.3 239.3 0 01 56.3-46.3c40.3-25.7 71.4-60.9 104.2-95.4C2230 1980 2230 1980 2250 1980Z" fill="#CAA966"/><path d="M990 927.5c50.7.3 93.2 14 140 32.5v10l-80 20v-30l-50 10v-20h-20l-10 30-10-30-20-10c15.2-15.2 28.8-12 50-12.5Z" fill="#C2A161"/><path d="M680 2370h20c-6 48.6-27.3 87.4-50 130l-30-20-30-10a6808 6808 0 01 43.8-50c8-9.3 16.2-18.6 24.6-28.1L680 2370Z" fill="#A2814D"/><path d="M1020 1800c29.6 27 43 54.7 59.4 90.6 9.6 20 9.6 20 25.8 34 18.6 19.4 23.9 36.7 31.7 62.3l7.6 24.5 5.5 18.6c-34-14.2-38.8-17.4-55-53.1L1080 1940l-20.6-23.8c-26.7-36-32.2-72.5-39.4-116.2Z" fill="#BD9C5D"/><path d="M2270 1200h130v20h-50l40 10-10 30-33.8-.6c-34.5-2-34.5-2-56.2 10.6v-60l-20-10Z" fill="#D1B372"/><path d="M3450 600h30v200c-33.7-45-33.7-69.5-31.9-122.5l.4-22.6L3450 600Z" fill="#F0F0F0"/><path d="M1770 1230c28.7 12.9 49.8 25.7 70 50v20l23.1 1.9c26.9 8.1 26.9 8.1 45 33.7L1920 1360c-21.7 3.4-21.7 3.4-50 0a472 472 0 01-53.1-53.8l-13.8-15.3c-33.1-38-33.1-38-33.1-61Z" fill="#EDCA80"/><path d="M1670 1040c28.7 5.7 38.6 8.6 60 30h20v30l40 20v20l19.4 8.1C1830 1160 1830 1160 1840 1190h-30c-16.8-17.1-30.5-35.6-45-54.7-5-5-10-10-15-15.3h-30v-30l-19.4-8.1C1680 1070 1680 1070 1670 1040Z" fill="#DEBB72"/><path d="m2580 1470 20 20-14.6 14.3-19.2 18.8-19 18.7c-19 19-19 19-37.2 48.2h-20l-20 40c-6.8-17.3-6.8-17.3-10-40 12.1-21.4 12.1-21.4 29.4-42.5l17.1-21.4L2520 1510l30 10 9.4-19.4C2570 1480 2570 1480 2580 1470Z" fill="#EECA80"/><path d="m340 2820 10 30 30-10 10 30h30l10 40-50-10-10-30-10 20h-20l-10 20v-30h20l-10-60Zm-30 100 50 10v30h-50v-40Z" fill="#D9B771"/><path d="M1750 1400h30a177 177 0 01 23.8 35.6 891.8 891.8 0 00 54.3 83.1C1880 1550 1880 1550 1880 1570l20 10-30 20-15-28.1c-25.8-45.6-57.4-86.6-89-128.3C1750 1420 1750 1420 1750 1400Z" fill="#C2A161"/><path d="m1210 1750 40 40-10 20h-20l-10 20-10-30h-20v-20h20l10-30Zm-70 30c18.8 6.3 18.8 6.3 40 20a337.3 337.3 0 01 20 60h-30c-25.7-25.7-25.4-44.8-30-80Z" fill="#DCBA72"/><path d="M220 3190v40h-60v20l-38.1 15-21.5 8.4C80 3280 80 3280 50 3280v-50l20 10v20l28.8-15C130 3230 130 3230 150 3230v-20c26.5-14.6 39-20 70-20Z" fill="#C6AB71"/><path d="M840 2860v20l-17.2 9.5-23.4 13-25 13.7c-14.8 8.4-29.6 17-44.2 26-35 21.5-59 32.8-100.2 27.8 23.7-26.6 48.2-41.1 80-56.9l26.3-13.2c23.7-10 23.7-10 53.7-10v-20c20-10 20-10 50-10Z" fill="#CCAB69"/><path d="m650 2830-30 20 10 30-160 60 10-30c25-11.7 25-11.7 55.6-21.9l30.7-10.4L590 2870l-10-30c36.3-21.3 36.3-21.3 70-10Z" fill="#C3A261"/><path d="M890 1540h30l10 30 30 10a238.5 238.5 0 01 20 40h-60l-10 40-20-10c-6.3-30.6-6.3-30.6-10-60l30-10-20-10v-30Z" fill="#EECB81"/><path d="M2980 1000h20c5.6 91.6-24.1 152.5-70 230h-30a631 631 0 01 51.3-103.8c25.5-45.7 35.6-74.4 28.7-126.2Z" fill="#C3A261"/><path d="M3450 950v100h-70c21.4-100 21.4-100 70-100Z" fill="#FBFBF9"/><path d="m1170 2570 20 10c-66 44-135.4 82.8-210 110l-30-10a570.4 570.4 0 01 138.1-71.9c44.2-13.9 44.2-13.9 81.9-38.1Z" fill="#C2A160"/><path d="m2770 1440 10 30-28.8 30-16.1 16.9c-15 13.1-15 13.1-35 13.1v30a407.2 407.2 0 01-80 70 122.2 122.2 0 01 36.3-71.6l16-17.2 16.9-17.5 16.7-17.7a3057 3057 0 01 63.9-66Z" fill="#C4A361"/><path d="M2420 1360h30c1.3 67.5 1.3 67.5-10 90h-20l-10-20-20 50c-10.6-18.1-10.6-18.1-20-40 10-30 10-30 30-60h20v-20Z" fill="#CAA967"/><path d="M1410 680c65.7-2.5 125.7 6.8 190 20l-20 10 10 50h-30l-3.1-19.4L1550 720l-30-10v20c-5.6-3-11.1-6.2-16.9-9.4A214.1 214.1 0 00 1410 700v-20Z" fill="#D9C691"/><path d="M1090 2710c-29 16.8-58.3 33.4-87.5 50l-25 14.5-24.2 13.6-22.2 12.7c-21 9.2-21 9.2-61 9.2l-.2-20a8028 8028 0 01 93-45.6l26.3-13.3 25.7-12.4 23.8-11.6c20.8-7 20.8-7 50.8 3Z" fill="#C3A261"/><path d="M2280 2010v30a765.7 765.7 0 01-57.5 51.3l-16.3 13.7c-27.6 22.7-50.2 40.6-86.2 45v20h-30v-20c43.8-30 43.8-30 70-30v-20c14.3-11.8 14.3-11.8 33.1-24.4A422.7 422.7 0 00 2260 2020l20-10Z" fill="#C4A362"/><path d="M600 1050h80a15621 15621 0 01-34.4 55l-19.3 31L610 1160h-10v-110Z" fill="#EEE"/><path d="M3150 3450h150v30h-150v-30Z" fill="#FFF"/><path d="M3000 3450h150v30h-150v-30Z" fill="#EEE"/><path d="M2850 3450h150v30h-150v-30Z" fill="#FFF"/><path d="M2700 3450h150v30h-150v-30Z" fill="#EEE"/><path d="M2550 3450h150v30h-150v-30Z" fill="#FFF"/><path d="M2400 3450h150v30h-150v-30Z" fill="#EEE"/><path d="M2250 3450h150v30h-150v-30Z" fill="#FFF"/><path d="M2100 3450h150v30h-150v-30Z" fill="#EEE"/><path d="M1950 3450h150v30h-150v-30Z" fill="#FFF"/><path d="M1800 3450h150v30h-150v-30Z" fill="#EEE"/><path d="M1650 3450h150v30h-150v-30Z" fill="#FFF"/><path d="M1500 3450h150v30h-150v-30Z" fill="#EEE"/><path d="M1350 3450h150v30h-150v-30Z" fill="#FFF"/><path d="M1200 3450h150v30h-150v-30Z" fill="#EEE"/><path d="M1050 3450h150v30h-150v-30Z" fill="#FFF"/><path d="M900 3450h150v30H900v-30Z" fill="#EEE"/><path d="M750 3450h150v30H750v-30Z" fill="#FFF"/><path d="M600 3450h150v30H600v-30Zm-300 0h150v30H300v-30Zm-300 0h150v30H0v-30Z" fill="#EEE"/><path d="M40 3190c76.3 17.5 76.3 17.5 110 40-57.5 30-57.5 30-80 30l-10-20-10 40-20-10 10-80Z" fill="#E9C67B"/><path d="M3450 3150h30v150h-30v-150Z" fill="#FFF"/><path d="M3450 3000h30v150h-30v-150Z" fill="#EEE"/><path d="M3450 2850h30v150h-30v-150Z" fill="#FFF"/><path d="M3450 2700h30v150h-30v-150Z" fill="#EEE"/><path d="M3450 2550h30v150h-30v-150Z" fill="#FFF"/><path d="M3450 2400h30v150h-30v-150Z" fill="#EEE"/><path d="M3450 2250h30v150h-30v-150Z" fill="#FFF"/><path d="M3450 2100h30v150h-30v-150Z" fill="#EEE"/><path d="M3450 1950h30v150h-30v-150Z" fill="#FFF"/><path d="M3450 1800h30v150h-30v-150Z" fill="#EEE"/><path d="M3450 1650h30v150h-30v-150Z" fill="#FFF"/><path d="M3450 1500h30v150h-30v-150Z" fill="#EEE"/><path d="M1650 1390c40.5 13.5 47.4 34.4 70 70l23.1 26.9L1760 1510l-10 30-10-30-17.5 7.5-22.5 2.5c-22.5-19.4-22.5-19.4-40-40l10-20 30 20-50-90Z" fill="#EECB82"/><path d="M3450 1350h30v150h-30v-150Z" fill="#FFF"/><path d="M1720 1270h20c9 13.2 18 26.5 26.4 40.1 23.5 34.5 51.4 65.5 78.5 97.2l15 22.7c-3.2 10-6.5 19.8-10 30l-53.7-63.1-15.3-18-15-17.5-13.5-16c-21.6-26.9-32.4-40.3-32.4-75.4Z" fill="#BD9C5D"/><path d="M2140 1060a371.1 371.1 0 01 60.6 71.3c18 30.5 18 30.5 49.4 48.7h-30l10 40-40 20 2.5-30.6c-3-48.6-17-68.8-42.5-109.4v-20l-20-10 10-10Z" fill="#CDAE70"/><path d="M3450 1050h30v150h-30v-150Z" fill="#FFF"/><path d="M3450 300h30v150h-30V300Zm0-300h30v150h-30V0Z" fill="#EEE"/><path d="M2250 2180v70h-90l10-30h20l10-30c30-10 30-10 50-10Z" fill="#FCFCFA"/><path d="M660 1940c27 13.5 32.2 32.3 43.4 59.5 10.7 33.2 13.6 65.8 16.6 100.5h-20l-10-20-10 60c-20-20-20-20-21.3-56.3L660 2050h30c-10.6-34-20-60.1-40-90l10-20Z" fill="#B19155"/><path d="M2450 1760c-12.4 37.3-27.6 45.9-58.8 69.4A381 381 0 00 2310 1910h-20c3.7-45.5 36.8-69 68.8-97.5l16.4-15.4c41-37.1 41-37.1 74.8-37.1Z" fill="#C6A564"/><path d="M3110 1180h30c-17.2 41.2-45.2 72.6-73.8 106.3l-14.6 17.7c-24.6 29.2-45.2 52.7-81.6 66l26.3-35a2962442301.6 2962442301.6 0 01 50.3-67l15.9-21.1 14.5-19.3A1244 1244 0 00 3110 1180Z" fill="#BE9D5D"/><path d="M2900 1090h20c-15.4 73.6-34.8 136.4-90 190h-20c9.2-25.5 17.6-47 34.4-68.4 17.3-23.9 27-46.6 37.5-74l10.4-27.1 7.7-20.5Z" fill="#C6A564"/><path d="m1520 710 40 10c-2.5 18.8-2.5 18.8-10 40-25.2 16.5-50.7 23.7-80 30l10-70 40 10v-20Z" fill="#A5824E"/><path d="M670 1990a256.7 256.7 0 01 30 40l-10 30-30-10-10 30c-25-13.1-25-13.1-50-30v-30l29.4-3.8L660 2010l10-20Z" fill="#9A6F46"/><path d="m1463.1 2343.1 16.9 6.9c-13.9 27.7-28.8 28.8-57.5 39.4a452.6 452.6 0 00-81.9 38.7L1320 2440l-30-10 100-60 26.9-17.2c23.1-12.8 23.1-12.8 46.2-9.7Z" fill="#C2A161"/><path d="M1490 1540c43 1.6 63.5 3.5 94.4 34.4C1600 1600 1600 1600 1600 1620c-31.6-13.7-40-19.9-60-50l10 70c-27.5-23.7-36.8-46.6-50-80l-20-10 10-10Z" fill="#BE9D5E"/><path d="m1630 1090 50 30 10-20v20l30 10c22 29.7 38.3 55 50 90-28.4-11.2-40.3-20.4-59.4-45-18.6-26.7-18.6-26.7-47.5-35.6L1640 1130c-8.1-21.3-8.1-21.3-10-40Z" fill="#D9B770"/><path d="M2030 900h70v100c-55.2-52.3-55.2-52.3-70-90v-10Z" fill="#EDEDEC"/><path d="M1040 860c57.8-1.2 112.8 1.7 170 10v20c-54.6 12.6-118.6 15.7-170-10v-20Z" fill="#BC9B5D"/><path d="M540 3020c-32 35.6-51.4 56.5-100 60-23.3.4-46.7.5-70 0 14.4-28.9 32.6-30.4 62.5-41.3l29-10.7c27.7-7.8 49.8-9.6 78.5-8Z" fill="#EFCC83"/><path d="M790 2090c23.9 29.6 47.4 59.4 70 90l-60 10c-30.7-44.1-30.7-44.1-27.5-72.5C780 2100 780 2100 790 2090Z" fill="#EECB82"/><path d="m2510 1780 20 10-17.2 16.9A2362.7 2362.7 0 00 2370 1960l-10-30 150-150Z" fill="#BB9A5A"/><path d="M1560 730c14 41.8-1.8 61.3-20 100-47.5-8.8-47.5-8.8-70-20 6.9-19.4 6.9-19.4 20-40 16.6-3.7 33.3-7 50-10l20-30Z" fill="#CFAD6A"/><path d="M200 3130c20 13.8 20 13.8 40 30v20l-17.5-5.6c-21.9-6-21.9-6-40.6.3-25.5 6.2-48.2 6.3-74.4 6-9-.2-17.8-.3-27-.3L60 3180v-20c16.2-2 32.5-3.8 48.8-5.6l27.4-3.2C160 3150 160 3150 180 3160v-20l20-10Z" fill="#D9B76F"/><path d="m220 2850 30 10-10 80h-20l-10-20-10 50h-20l10-100h20l10-20Z" fill="#C3A261"/><path d="m800 2820 30 10c-62 42.6-115.2 77.3-190 90v-20l17.2-7.3a871.6 871.6 0 00 111.6-55.8L800 2820Z" fill="#C2A160"/><path d="M1420 1730h10c1.3 57.5 1.3 57.5-10 80l40 20v40h-60c9.6-94.1 9.6-94.1 20-140Z" fill="#D1CBAE"/><path d="m1670 1640 10 50h20c6.9 18.1 6.9 18.1 10 40-12.5 17.5-12.5 17.5-30 30h-30l10-90-40-10c38.8-20 38.8-20 50-20Z" fill="#D8C28A"/><path d="M1460 1440h50l-20 20-20-10 5.6 27.5c4 29.3 3.9 45.1-5.6 72.5h-20l10 30-40-10v-30h30l-20-50h20l10-50Z" fill="#C4A362"/><path d="m2700 1460 20 10-59 59c-16.4 16.4-32.5 33-48.5 49.7A183.8 183.8 0 01 2550 1620l20-40h20l7.1-17.3c15.8-27.9 34.9-44.4 59.2-65.2l24.7-21.4L2700 1460Z" fill="#BC9B5B"/><path d="m2540 1090 50 20v30h40v30l-60-10v-20h-20v20h-20c-.4-20-.4-40 0-60l10-10Z" fill="#DAB871"/><path d="M1820 790c47 5.2 80.1 26.7 118.1 53.1l18.1 11.9c17.1 11.8 17.1 11.8 43.8 35v40h-20l-6.6-17.8c-17.8-29.4-38.3-40.4-67.8-57.8-32.1-19.2-60.5-36.4-85.6-64.4Z" fill="#CEB67D"/><path d="M2110 1950h20c-15.3 41.6-45.4 62.4-80 87.5l-16.6 12.5c-40.7 30-40.7 30-63.4 30 12-36.1 21.5-39.9 53.1-59.4A450 450 0 00 2110 1950Z" fill="#C3A261"/><path d="m2640 1490 10 30-21.3 15.6a546.9 546.9 0 00-75.4 80.5L2540 1630h-20c0-21.3 0-21.3 10-50 19-17 38.9-31.3 60-45.7a328.6 328.6 0 00 50-44.3Z" fill="#EECA81"/><path d="M3130 1310c-15.5 38.3-39.4 60.3-70 87.5l-26.9 24.2C3010 1440 3010 1440 2990 1440c15-38.4 37.7-55.2 70-80l26.9-27.5C3110 1310 3110 1310 3130 1310Z" fill="#C0A266"/><path d="M1120 2660a17028 17028 0 01-122 62.5l-20 10.2C960 2740 960 2740 930 2740v-20l48.6-20.6c15-6.6 30.1-13.5 45-20.6a7256779372 7256779372 0 00 46.2-22C1090 2650 1090 2650 1120 2660Z" fill="#C4A362"/><path d="m2282.3 2073.6 17.7 6.4c-16.8 19.5-28.9 29.6-53.1 39a383.7 383.7 0 00-75 42.3c-8 5.3-15.8 10.7-24 16.3L2130 2190l-20-10a9323 9323 0 01 72.6-55.6l20.7-16.2a1560419449.7 1560419449.7 0 00 38.5-29.2c18.3-9 18.3-9 40.6-5.4Z" fill="#C9A866"/><path d="M910 2010c33 28 50.6 61.8 70 100v40l-60 10 30-30-8.8-16-11.2-21.5c-3.7-7-7.4-14-11.3-21C910 2050 910 2050 910 2010Z" fill="#C3A262"/><path d="M1390 1700h40c-2.8 21.5-5.7 43-8.8 64.4l-4.9 36.2L1410 1830l-20 10v-140Z" fill="#AA8A52"/><path d="m1550 1420 60 20v50l20 10-10 60-30-10 2.5-25.6c-3.3-44.8-18.5-66.9-42.5-104.4Z" fill="#DBB972"/><path d="M720 1450h30v130l-30-10v-120Z" fill="#CEAD6A"/><path d="M2730 1160c20 20 20 20 23.1 57.5-1 40.3-10.7 68.5-33.1 102.5l-30 10 6.6-17.2c18.1-50.3 25.6-89.5 23.4-142.8l10-10Z" fill="#C4A462"/><path d="M2460 1210h60l10 30h-40v30l-70-20v-20h40v-20Z" fill="#D0AF6B"/><path d="m1780 1000 20-10-10 50-60 20c-30-37.5-30-37.5-30-60 33.3-11.1 46.6-6.9 80 0Z" fill="#DEBB73"/><path d="m1210 2500 10 20-22 9.9c-41.5 18.8-83 37.5-123.6 58.2C1050 2600 1050 2600 1030 2600c10-30 10-30 40.5-45.7a2557 2557 0 01 38.3-15.6l19.3-8c27-11 54.1-21.4 81.9-30.7Z" fill="#C7A664"/><path d="m1090 1900 70 10 20 70-30-20-20 20c-40-57.5-40-57.5-40-80Z" fill="#EFCB81"/><path d="M1250 1850c70 84.5 70 84.5 70 120-30-10-30-10-41.9-30.6L1270 1920h-40l10-30-10-20h20v-20Z" fill="#EECB81"/><path d="m2030 1440 20 10-20 30h-20l-7.5 17.5A221.5 221.5 0 01 1950 1560h-20v20c-25 16.3-25 16.3-50 30l20-40h20l8.1-19.4C1940 1530 1940 1530 1970 1520v-20c13.8-16.3 13.8-16.3 30-30h20l10-30Z" fill="#8F4A39"/><path d="M1760 1250c36.1 15 56.9 35.8 82.5 65l21.4 24C1880 1360 1880 1360 1880 1380c-26.2-10.5-38-16.5-52.5-41.3L1820 1320h-20v-20h-20l-20-50Z" fill="#C6A564"/><path d="M1670 1150v20h20l10 50-30-10 20 40h-30c-20-20-20-20-20.6-45l.6-25-10-20c20-10 20-10 40-10Z" fill="#D2B06C"/><path d="M3450 850c10 30 10 30-3.6 63.2-6.4 12.7-13 25.4-19.5 38l-9.8 19.6c-24.4 47.8-24.4 47.8-47 59.2 11-44.1 22.1-74.4 50-110 11-23 20.3-46.3 30-70Z" fill="#B09056"/><path d="M1620 710c66 12.8 129.7 29.4 190 60l10 20c-154.3-34.3-154.3-34.3-200-80Z" fill="#D1BB84"/><path d="M2080 1940c-13 39-37.4 53.6-69.4 76.9l-16.7 12.6c-41.8 30.5-41.8 30.5-64 30.5l10-30c20.1-6.9 20.1-6.9 40-10v-20c16.3-15 16.3-15 38.3-31.3l21.7-16.3c20-12.4 20-12.4 40-12.4Z" fill="#C7A664"/><path d="M840 2930c-14 42.1-37.7 50.3-75.7 70.6-36 14-57.6 9.6-94.3-.6v-10l20.1-5.5C736.5 2971.3 795.5 2930 840 2930Z" fill="#C4A96E"/><path d="M970 1520c24.7 10 24.7 10 50 20v40l-30-10-10 30h-20l-20-50 30-30Z" fill="#D1B06C"/><path d="M2810 1450c-14 44.3-34.8 70-70 100h-30c15-39 54.6-100 100-100Z" fill="#F0CD83"/><path d="m1040 890 10 20 30-20 30 10-20 30-130-10v-20l34.4.6c33.8 3.6 33.8 3.6 45.6-10.6Z" fill="#F0CC82"/><path d="M1100 2580v20l-50 10-10 30c-23.8 12.5-23.8 12.5-50 20l-30-10 40-10v-50l10 20 28.1-15C1070 2580 1070 2580 1100 2580Z" fill="#F0CD84"/><path d="M1970 2340v20c-20.8 14.7-20.8 14.7-48.1 30.6l-27 16c-25 13.4-25 13.4-55 23.4v-30c16.5-13.5 16.5-13.5 38.2-26.3l21.5-12.8c23.6-12.6 43.4-21 70.4-21Z" fill="#C7A868"/><path d="M1160 1890a376.3 376.3 0 01 55.6 81.9c12.8 30.5 12.8 30.5 44.4 48.1l-50 10a7628 7628 0 01-30.6-58.8l-17.3-33L1150 1910l10-20Z" fill="#C9A866"/><path d="M2320 1770h20c-15.5 40.8-42.5 60.8-76.3 87.5l-30.3 24.2L2210 1900c0-30 0-30 21.5-52.3l27.9-24 27.7-24L2310 1780l10-10Z" fill="#C2A161"/><path d="m1630 1740 10 40c-55 40-55 40-100 40l10-50 10 20 18.1-15C1600 1760 1600 1760 1630 1760v-20Z" fill="#FCFCFC"/><path d="M2340 1510h20c-4.3 31-9.3 60.6-20 90-26.3 15.6-26.3 15.6-50 20l-10-20a267.6 267.6 0 01 50-70l10-20Z" fill="#EECB82"/><path d="M480 3090v20c-20.8 15.4-20.8 15.4-48.1 31.9l-27 16.7c-25 11.4-25 11.4-55 1.4l50-20-10-40c32-10.7 56.7-10.7 90-10Z" fill="#E4C179"/><path d="m1660 2340 20 10c-99.7 73.4-99.7 73.4-160 70v-20c22.9-10.3 45.8-20.5 68.8-30.6l19.7-9c17-7.4 34.2-14 51.5-20.4Z" fill="#C8A765"/><path d="m2140 2000 20 10-37.5 33.1c-7 6.2-14 12.3-21 18.7-56.7 48.2-56.7 48.2-81.5 48.2l10-30h20v-20l40-10v-20c23.8-16.9 23.8-16.9 50-30Z" fill="#C6A563"/><path d="M3040 1250c-15.5 38.8-40 60.3-71.3 87.5l-27.5 24.2L2920 1380c0-30 0-30 21.2-54.8 9-9 18.2-17.9 27.5-27l27.5-27.4C3020 1250 3020 1250 3040 1250Z" fill="#C4A362"/><path d="m2750 980 40 10-30 10-10-20Zm-10 30c22.5 2.7 22.5 2.7 50 8.1l27.5 5.2 22.5 6.7 10 20a2070 2070 0 01-43.1 1.9l-24.3 1c-27.4-3.5-35.5-11.8-52.6-33l10-10.5Z" fill="#DAB871"/><path d="M70 3100h110v20l-100 20-10-40Z" fill="#CFAE6A"/><path d="M1490 2590a969.7 969.7 0 01-100.6 56.9l-19.3 10a904.6 904.6 0 01-50 23.1l-20-10c50.6-45.8 119-89.2 190-80Z" fill="#D4C08B"/><path d="M2810 1180h20c-14.2 56.8-44 95.3-80 140l-20-10 12.4-18.3 16.3-24.2 16.2-24a562.3 562.3 0 00 35-63.5Z" fill="#C5A463"/><path d="M1770 1050a237.6 237.6 0 01 77.5 55l18.6 18.4C1880 1140 1880 1140 1880 1160c-37.7-15-37.7-15-49.4-40-14.6-27.5-31.7-30.9-60.6-40v-30Z" fill="#C4A362"/><path d="M750 900h80c-25.8 26.5-49.2 49.4-80 70v-70Z" fill="#EEE"/><path d="m980 2520-10 30H840c50.6-33.7 79.7-44 140-30Z" fill="#D3B26D"/><path d="m830 2090 30 10v30c37.7 12.6 53.7 3.7 90-10l10 20c-34.4 23-47.2 30-90 30-40-68.8-40-68.8-40-80Z" fill="#EDCA82"/><path d="m2490 1750 30 10-21.5 19-27.9 24.7-27.7 24.7c-23.3 19.5-23.3 19.5-32.9 41.6h-20c15.6-38.3 40.3-61.7 70-90l18.1-18.1L2490 1750Z" fill="#C6A564"/><path d="m430 3110-30 10v20c-64 40.6-64 40.6-94.4 37.5L290 3170l25-13.8L340 3140v-20a273 273 0 01 90-10Z" fill="#F0CD83"/><path d="m1820 2300 20 10-10 20 50-10-20 40h-40v-20h-30l10-30 20-10Z" fill="#CAA966"/><path d="m1520 1790 3.1 19.4 6.9 20.6 30 10c-31.3 18.6-53.7 22-90 20l-10-40 50 10 10-40Z" fill="#CEC9A9"/><path d="M2870 1270h30c-15.6 46.7-40.8 80.9-70 120l-20-10 60-110Z" fill="#C7A664"/><path d="M3130 930h30c-7.1 85.7-7.1 85.7-40 120-13.6-27.2-7-41.8-.6-71.3l5.9-27.5c1.5-7 3-14 4.7-21.2Z" fill="#CBAA68"/><path d="M150 3250v50H50c28.5-28.5 57.5-50 100-50Z" fill="#E9E9E3"/><path d="m1460 1830 10 30h50c-20.6 20.6-20.6 20.6-50 40-38.1-2.5-38.1-2.5-70-10l-10-40 10 20h60v-40Z" fill="#AA8A52"/><path d="m2180 1710 20 40-40 50-40-20 60-70Z" fill="#CEAD6A"/><path d="M2950 1250h30c-14.4 32.4-32.6 56.2-56.3 82.5l-19 21.4c-5 5.3-9.7 10.6-14.7 16.1l-20-10a5716 5716 0 01 38.1-55l21.5-31L2950 1250Z" fill="#C7A664"/><path d="m3060 990 20 20 20-20v20h20l-20 60-10-20h-30l-10 20 10-80Z" fill="#E8C67C"/><path d="m2590 1510-10 30h-20l-8.1 17.5A326.3 326.3 0 01 2510 1620h-20c0-30 0-30 23.1-55L2540 1540l16.9-18.1C2570 1510 2570 1510 2590 1510Z" fill="#C4A362"/><path d="m2880 1450-10 50-17.5 2.5c-28.7 9.6-42.5 25.3-62.5 47.5l-20-10 28.1-33.8 15.8-19c20-21.5 35.6-37.2 66.1-37.2Z" fill="#E9C67D"/><path d="M2640 1200h20l10 100h-20l-10 20v-120Z" fill="#C6A563"/><path d="m2020 1190 30 20v20h20v20l-50 10-20-60 20-10Z" fill="#D8B671"/><path d="M2220 1180h40c23 34.4 21.8 49.9 20 90-31.9-21.3-42.5-36.7-60-70v-20Z" fill="#874234"/><path d="m2510 1140-40 10v30l-70 10c10-30 10-30 43.8-47.5C2480 1130 2480 1130 2510 1140Z" fill="#BFA064"/><path d="M1280 2560c6.3 20.6 6.3 20.6 10 40l-60 20 10-40h-30c10-20 10-20 29.4-26.9C1260 2550 1260 2550 1280 2560Z" fill="#DDBB74"/><path d="M1190 2400v20h-20v20l-33.1 4.4c-36.2 4.4-36.2 4.4-66.9 15.6v-30l48.8-15 27.4-8.4C1170 2400 1170 2400 1190 2400Z" fill="#F1CD84"/><path d="m1990 1950 30 10-30 10v20l-100 50v-20c54.1-40 54.1-40 80-40v-20l20-10Z" fill="#C8A765"/><path d="M670 1700a904.9 904.9 0 01 40 40v20l-40 40-30-10 20-30h20l-10-60Z" fill="#D9B770"/><path d="M2960 1450h20c-13.6 30-29.5 53-51.3 77.5l-16.3 18.6L2900 1560l-30-10a6808 6808 0 01 43.8-50c8-9.3 16.2-18.6 24.6-28.1L2960 1450Z" fill="#BE9D5E"/><path d="M1980 1330c37 12.4 46.5 29.7 70 60l20 10-20 40-40-50-17.5-21.9C1980 1350 1980 1350 1980 1330Z" fill="#BF9E5F"/><path d="m570 3030 20 10-10 30c-30.6 11.9-30.6 11.9-60 20l-20-30a1351 1351 0 01 70-30Z" fill="#BD9C5D"/><path d="m110 2980 6.9 18.1c16.5 27.5 35 37.1 63.1 51.9l-40 20-30-30-20 10c8.8-47.5 8.8-47.5 20-70Z" fill="#DFC382"/><path d="m1360 2510-53.1 30-30 16.9C1250 2570 1250 2570 1220 2570v-20a3294 3294 0 01 47.5-25.6l26.7-14.4c27.9-10.8 38.5-10.7 65.8 0Z" fill="#C2A160"/><path d="M950 2050c18.8 2.5 18.8 2.5 40 10 17.2 25.8 20 38.5 20 70h-30c-21-28.9-30-43.8-30-80Z" fill="#EECB82"/><path d="m750 1600 10 100-30-10c-13.5-27-10.7-50-10-80 20-10 20-10 30-10Z" fill="#D0AE6A"/><path d="M2060 1260h40l30 90-20 10-2.5-23.8c-4.8-27.7-4.8-27.7-28.1-39.3L2060 1290v-30Z" fill="#A7844F"/><path d="M1030 960h20v30l22.5-11.3c27.5-8.7 27.5-8.7 50.6 0L1140 990c-37.5 11.3-37.5 11.3-60 0l-10 20-50-20 10-30Z" fill="#EFCC82"/><path d="M1440 2320c-39 27.9-73.8 46.8-120 60 10-30 10-30 30-42 8-3.5 16-7 24.4-10.5l24.3-10.8C1420 2310 1420 2310 1440 2320Z" fill="#C3A261"/><path d="M960 2000c30 10 30 10 46.9 43.8C1020 2080 1020 2080 1020 2110l30 10-40 10-50-130Z" fill="#C1A060"/><path d="M600 1890h20l10 20 30 10v30l-70-10 10-50Z" fill="#8C5039"/><path d="m1020 1830 20 30-5 19.4c-6.5 26.8 1 37.6 15 60.6-33.6-11.2-47-23.7-70-50 0-20 0-20 20-41.3l20-18.7Z" fill="#E8C579"/><path d="M1180 1800h20l10 20 40-10v30c-25 21.9-25 21.9-50 40-12.6-29-20-48-20-80Z" fill="#EECA80"/><path d="m1470 1450 30 10a400 400 0 01 10 60l-20 30h-20v-100Z" fill="#9B7247"/><path d="M2540 1270h20c21 34 21.8 60.5 20 100h-30l-10-100Z" fill="#C9A866"/><path d="M2580 1300h60v60h-30l-30-60Z" fill="#DDBB73"/><path d="m2990 1090 30 10c3.5 29.7 5.4 51.6-11.1 77.3A973.7 973.7 0 01 2970 1220l-20-10 20-26.3c21.3-35.8 23.9-53 20-93.7Z" fill="#D1B06C"/><path d="m610 2430 20 10-100 110c0-39.6 13.5-48.3 40-76.9l22.5-24.5L610 2430Z" fill="#B19056"/><path d="M1670 2210c-15 42-42.3 58-80 80h-20c11-33 16.9-37.9 44.4-56.9l18.7-13.2c16.9-10 16.9-10 36.9-10Z" fill="#C3A261"/><path d="M700 2160h20l10 50 30 10-18.8 3.8c-23.1 5-23.1 5-41.2 26.2-11.3-56.3-11.3-56.3 0-90Z" fill="#B49357"/><path d="M1860 2010c30.6 6.3 30.6 6.3 60 20 13.8 21.3 13.8 21.3 20 40h-20v-20l-33.8 1.3C1850 2050 1850 2050 1830 2030l30-20Z" fill="#DFBD76"/><path d="M950 1830h20l30 90-30 10c-16-35-22.2-61.4-20-100Z" fill="#C3A261"/><path d="M890 1860c30 10 30 10 41.7 27.8l10.2 21.6 10.4 21.5c7.7 19 7.7 19 7.7 39-26.8-10-37.8-15.3-50.5-41.5l-7-24.7-7.3-24.7L890 1860Z" fill="#BA995B"/><path d="M760 1760h20l10 48.8 5.6 27.4C800 1860 800 1860 800 1880h-20c-11.4-42.7-20-75.6-20-120Z" fill="#C1A05F"/><path d="m2700 1710 30 10-22.5 17.5A770 770 0 00 2640 1800c0-40 0-40 28.1-68.1L2700 1710Z" fill="#C9AA6B"/><path d="M2980 1020h10c-4.4 45.6-8.5 75.8-40 110l-10-60 30-20 10-30Z" fill="#E8C57C"/><path d="M310 3140c-12.5 25-12.5 25-30 50h-40v-40c36.3-21.3 36.3-21.3 70-10Z" fill="#EECA7F"/><path d="M430 3030c-25 25-46.1 30.5-80 40h-40v-20c41.2-13 76.7-22.6 120-20Z" fill="#C6A564"/><path d="m1220 2390-10 10 20 10v20l-50 10 10-40-50 10c25.6-25.6 46.2-36.9 80-20Z" fill="#D1B06C"/><path d="M810 2090c37.5 12.5 42.4 25.7 60 60v20l20 10c-31.4-3.4-40.3-10.3-62.5-33.8C810 2120 810 2120 810 2090Z" fill="#BF9E5F"/><path d="m2350 2030 20 10Zm-10 10 10 30-60 60-20-10c16.2-20.4 32.9-40.4 50-60h20v-20Z" fill="#B49356"/><path d="m3170 1230 20 10-20 10v-20Zm-10 20 20 10c-7.5 19.4-7.5 19.4-20 40-21.3 7.5-21.3 7.5-40 10 11.5-24.7 20.5-40.5 40-60Z" fill="#B59458"/><path d="M1820 1050c39.4 16.7 67.9 42.3 100 70l-30 10c-18.2-11.4-18.2-11.4-36.9-28.1l-18.8-16.5C1820 1070 1820 1070 1820 1050Z" fill="#C2A160"/><path d="m50 3230 20 10v20l70-20v20l-90 20v-50Z" fill="#BB9B5C"/><path d="M170 3030c77.5-1.3 77.5-1.3 100 10v20l-100-10v-20Z" fill="#CCAB68"/><path d="M180 2880h10l-10 90-10-20-30-10a2500 2500 0 01 40-60Z" fill="#E0C78A"/><path d="M1750 1550c10 20 10 20 10 50 6.3 16.8 12.9 33.5 20 50h-30l-10-40h-20c18.8-48.8 18.8-48.8 30-60Z" fill="#A98751"/><path d="M1860 1470c41.4 13.8 53.2 36 80 70l-30 30c-38.8-66.3-38.8-66.3-50-100Z" fill="#BE9D5D"/><path d="m2810 1320 10 30c-23.1 31.9-23.1 31.9-50 60h-20l20-40 10-21.9c10-18.1 10-18.1 30-28.1Z" fill="#C5A463"/><path d="m2090 1250 40 20v30l20-10-10 50h-20l-30-90Z" fill="#D9B873"/><path d="M3150 1080h20c-11.9 33.8-22.8 56.5-50 80l-30-10a4177 4177 0 01 28.8-35l16.1-19.7 15-15.3Z" fill="#C5A463"/><path d="m1760 1110 30 10v20l19.4 8.1C1830 1160 1830 1160 1840 1190h-30c-50-53.5-50-53.5-50-80Z" fill="#BE9E5E"/><path d="M1170 790c76.3 18.8 76.3 18.8 110 30v20l-70-10v-20h-40v-20Z" fill="#C1A060"/><path d="M130 2950h40l-10 40h-20l-10 40-10-10c2.9-23.4 6.2-46.7 10-70Z" fill="#CFB170"/><path d="M2390 2040h10v60h-60a2836 2836 0 01 50-60Z" fill="#FFF"/><path d="M2550 1900v50h-60c10-30 10-30 30-41.9 20-8.1 20-8.1 30-8.1Z" fill="#FDFDFD"/><path d="M1280 1880c37.9 12.6 40.4 26.5 60 60l30 20-50 10c-40-67.5-40-67.5-40-90Z" fill="#C1A060"/><path d="M1140 1780h20l40 80h-30c-25.7-25.7-25.4-44.8-30-80Z" fill="#C7A665"/><path d="M1770 1530h20a252 252 0 01 26.3 33.8l13.5 19C1840 1600 1840 1600 1840 1620h-20c-30-34.6-30-34.6-30-60h-20v-30Z" fill="#EDCA82"/><path d="M2490 1520h20c-15.6 38.2-40.4 62-70 90 5.7-38.7 23.9-61.5 50-90Zm-790-100 80 80-10 20a637.6 637.6 0 01-80-90l10-10Z" fill="#C09F5F"/><path d="M1990 1370h20c23 25.6 30 34.8 30 70h-20l-10-30-20 20a884 884 0 01-10-50l10-10Z" fill="#EDCA80"/><path d="M1660 1320c31.6 13.7 40 19.9 60 50v30h-20l-20-50h-20v-30Z" fill="#C8A765"/><path d="m2500 1290 30 10v80l-20 10-10-100Z" fill="#C2A161"/><path d="m2070 1300 30 10 10 60h-30c-10.6-18.1-10.6-18.1-20-40l10-30Z" fill="#D1B06D"/><path d="M2140 1060a407.7 407.7 0 01 60 70c-3.8 21.9-3.8 21.9-10 40-40-67.5-40-67.5-40-90l-20-10 10-10Z" fill="#D2B87D"/><path d="M2700 1060h80l10 30-90-10v-20Z" fill="#CAA967"/><path d="m3310 830 30 10c1.3 67.5 1.3 67.5-10 90h-20V830Z" fill="#C09F5F"/><path d="M150 2850h40c-5.6 32.7-15 48.3-40 70v-70Z" fill="#FCFCFC"/><path d="m860 2710-10 30-70 10v-20c32.3-21.5 42.8-22 80-20Z" fill="#CCAB68"/><path d="m1690 2240 20 10c-56.3 50-56.3 50-90 50 10-30 10-30 39.4-47.5L1690 2240Z" fill="#CEAD6A"/><path d="m580 1940 20 10v20c6.4 16.8 13 33.5 20 50l-30 10c-21-44.3-21-44.3-16.3-73.1L580 1940Z" fill="#A78650"/><path d="m2410 1880 20 20-70 60c10.5-42 19.2-52.2 50-80Z" fill="#C9A866"/><path d="M870 1720h20c31.3 66.3 31.3 66.3 20 100-28.3-32-35.2-57.8-40-100Z" fill="#C3A261"/><path d="M1470 1750c14.6 26.5 20 39 20 70l20 10c-28.8 1.9-28.8 1.9-60 0l-20-30h40l-10-30 10-20Z" fill="#EBEAE7"/><path d="M2850 1570h20a565.4 565.4 0 01-40 70l-30-10c16.2-20.4 32.9-40.4 50-60Z" fill="#C3A668"/><path d="m1940 1410 20 10v20l20 10-10 20h20v20l-40-10-10-70Z" fill="#EFCB82"/><path d="M1580 1210c30 10 30 10 42.5 28.8C1630 1260 1630 1260 1620 1290c-30-20-30-20-36.9-51.3L1580 1210Z" fill="#F0CC83"/><path d="M1690 1140c31.8 3.4 40.2 10.2 62.5 34.4C1770 1200 1770 1200 1770 1220c-42-15-57.4-42.9-80-80Z" fill="#BE9D5E"/><path d="M3250 930c10 30 10 30-4.4 61.9L3230 1020h-20c3.1-33.8 3.1-33.8 10-70l30-20Z" fill="#E6C47C"/><path d="M1040 860h90l-20 10v20l-70-10v-20Z" fill="#C6A565"/><path d="M3150 750h80c-26.2 21.5-46.4 34-80 40v-40Z" fill="#FCFCFC"/><path d="m40 3190 40 20-30 70-20-10 10-80Z" fill="#E2BF76"/><path d="M530 3080c-22.5 11.3-22.5 11.3-50 20-23.1-8.8-23.1-8.8-40-20v-10c37.8-10.5 56.5-11 90 10Z" fill="#CEAD6A"/><path d="M1050 2810v40h-60v-20c30-20 30-20 60-20Z" fill="#F9F9F8"/><path d="M310 2800h40v80l-30-10-10-70Z" fill="#C4A362"/><path d="m1340 2660 10 40h-80c10-20 10-20 40.6-31.3L1340 2660Z" fill="#ECECEA"/><path d="M1610 2490c-40.3 22-74.4 34.6-120 40 21-42.2 77.4-58.8 120-40Z" fill="#C09F5E"/><path d="M660 1940c33.3 16.6 38 46.3 50 80-4.2 22.3-4.2 22.3-10 40l-50-100 10-20Z" fill="#C7A665"/><path d="M1190 1920h20l13.8 29.4c12.8 31.3 12.8 31.3 36.2 40.6v20c-18.1-1.3-18.1-1.3-40-10-30-50.4-30-50.4-30-80Z" fill="#EECB81"/><path d="M1390 1700h40v30l-20 10c-6.6 25.3-6.6 25.3-10 50h-10v-90Z" fill="#B49357"/><path d="M1610 1460c57.8 44.3 57.8 44.3 68.8 73.1L1680 1550h-20a2642.7 2642.7 0 01-30-50l-20-10v-30Z" fill="#F0CC82"/><path d="M2780 1390h20v20h20v20l-70 10c13.8-25 13.8-25 30-50Z" fill="#EFCC81"/><path d="m2140 1180 20 10v50l-10-20-60 10v-20c23.8-16.9 23.8-16.9 50-30Z" fill="#E0BE76"/><path d="m650 2830-30 20v30l-40-20v-20c36.3-21.3 36.3-21.3 70-10Z" fill="#CFAE6B"/><path d="m1170 2530 20 10-10 10 20 10v30l-30-10h-30c3.8-19.4 3.8-19.4 10-40l20-10Z" fill="#E1BF77"/><path d="m1150 1860 20 10-20 40-40-10c10-20 10-20 40-40Z" fill="#E3C078"/><path d="M710 1810c25 29.4 34.7 51.8 40 90l-30-10-10-80Z" fill="#BC9B5C"/><path d="M1710 1670h20l10 50h-20v20l-20-10 10-60Z" fill="#CCA668"/><path d="m1700 1630 30 10v20h20l10 40-20 10-10-40h-20l-10-40Z" fill="#A8844F"/><path d="M1530 1560c25 23.1 25 23.1 50 50v30h-20c-20.4-29-30-44-30-80Z" fill="#EDCA82"/><path d="m2600 1550 30 20c-57.5 50-57.5 50-80 50l20-40h20l10-30Z" fill="#C8A765"/><path d="M1800 1530c26.5 25.8 49.4 49.2 70 80l-30 10c-40-56.3-40-56.3-40-90Z" fill="#BE9D5E"/><path d="m1920 1440 30 20v20l40 20h-20l-10 20v-20h-20c-20-30-20-30-20-60Z" fill="#BF9E5F"/><path d="M2100 1220h40l10 60c-19.4-7.5-19.4-7.5-40-20-7.5-21.3-7.5-21.3-10-40Z" fill="#B49158"/><path d="M3110 1180h30a193.3 193.3 0 01-50 70l-10-20c12.5-26.3 12.5-26.3 30-50Z" fill="#C8A765"/><path d="m2870 950 70 30-30 20c-31.9-8.8-31.9-8.8-60-20l20-30Z" fill="#EECA7F"/><path d="m1516.9 2493.8 23.1 6.2-40 20 10 20h-30v-20l-20-10c30-20 30-20 56.9-16.3Z" fill="#DEBC75"/><path d="m1180 2470 30 10c-51.8 32.2-51.8 32.2-70 40l-30-10c47.5-28.8 47.5-28.8 70-40Z" fill="#C8A766"/><path d="M1330 2480c-56.3 40-56.3 40-90 40v-20c56.3-31.3 56.3-31.3 90-20Z" fill="#C5A463"/><path d="m2020 2290 40 20-90 30 50-50Z" fill="#C2A468"/><path d="M1640 2170c21.9 3.1 21.9 3.1 40 10l-20 30-50-10c12.5-15.6 12.5-15.6 30-30Z" fill="#EFCC82"/><path d="m1690 2120 20 10c-11.3 19.4-11.3 19.4-30 40-31.9 7.5-31.9 7.5-60 10a494.5 494.5 0 01 70-60Z" fill="#DAB873"/><path d="M890 2020h20l10 80c-15-11.9-15-11.9-30-30-1.9-26.9-1.9-26.9 0-50Z" fill="#F0CC83"/><path d="m1580 1620 60 20v20l-70-10 10-30Z" fill="#D5B97B"/><path d="M1780 1570c20 13.1 20 13.1 40 30v30l-30 10-20-20h20l-10-50Z" fill="#C09F5F"/><path d="M1620 1500h20a958.6 958.6 0 01 30 60l-10 20c-40-46.3-40-46.3-40-80Z" fill="#C5A463"/><path d="m1860 1520 40 10 10 40h-30l-20-50Z" fill="#EDCA82"/><path d="M1270 700h30v20l40 20c-23.8 6.3-23.8 6.3-50 10l-20-20v-30Z" fill="#E9CB89"/></svg>
